<svg width="171" height="91" viewBox="0 0 171 91" fill="none" xmlns="http://www.w3.org/2000/svg">
<path d="M7.28854 0.0791016C6.76142 4.44814 6.76142 8.86443 7.28854 13.2335C8.16661 20.3742 8.54403 38.5399 6.15624 50.5672C3.76845 62.5945 0 77.6267 0 77.6267C0 77.6267 10.0518 79.6313 14.1977 81.8874C18.3436 84.1434 26.7625 85.8965 31.0335 83.264C35.3045 80.6316 42.3427 78.8805 46.6138 79.3817C50.8848 79.8828 62.0631 86.4015 74.7569 86.8987C87.4507 87.396 107.55 89.5292 115.467 87.8991C123.383 86.2689 132.428 82.137 139.087 84.2663C145.745 86.3956 151.016 91.0326 155.922 89.9036C160.829 88.7746 171 85.2686 171 85.2686C171 85.2686 164.591 74.6199 160.573 67.4792C156.554 60.3384 150.012 39.5422 147.505 32.0252C144.998 24.5081 144.365 15.4876 144.365 15.4876C144.365 15.4876 134.313 23.7574 129.412 21.3765C124.511 18.9956 117.225 11.2367 112.451 12.356C107.678 13.4753 100.766 19.1223 91.2172 17.8685C81.668 16.6147 76.6421 13.7346 71.1136 14.111C65.5851 14.4873 59.0534 13.8594 53.1475 10.4782C47.2415 7.09698 43.8505 3.08593 37.1897 4.96568C30.5289 6.84543 29.0231 13.7405 23.8721 10.4782C18.721 7.21592 13.7029 2.45999 11.5518 1.45772C10.1898 0.833206 8.75888 0.370492 7.28854 0.0791016Z" fill="white"/>
<path d="M115.467 87.8984C123.381 86.2702 132.428 82.1363 139.086 84.2656C145.745 86.395 151.016 91.032 155.922 89.903C160.829 88.7739 171 85.2679 171 85.2679C171 85.2679 169.508 82.7876 167.511 79.4181C164.969 80.863 161.316 82.4834 156.994 83.1074C148.485 84.3339 149.076 80.5841 143.758 78.3456C138.441 76.107 131.939 79.7593 121.302 82.4697C110.666 85.1802 102.628 78.4626 94 76.9299C85.3719 75.3973 71.6631 79.7554 63.3909 79.8763C55.1187 79.9972 43.653 72.5698 37.6258 71.628C31.5986 70.6862 28.9977 74.4554 23.4438 76.46C17.8899 78.4645 13.1612 76.46 9.81713 74.4554C7.76766 73.2289 4.1185 71.9205 1.60359 71.0781C0.664902 75.0053 0.0078125 77.6261 0.0078125 77.6261C0.0078125 77.6261 10.0596 79.6306 14.2055 81.8867C18.3514 84.1428 26.7702 85.8958 31.0413 83.2634C35.3123 80.6309 42.3506 78.8799 46.6216 79.381C50.8926 79.8822 62.0709 86.4008 74.7647 86.8981C87.4585 87.3953 107.55 89.5286 115.467 87.8984Z" fill="#E94C43"/>
<path d="M162.061 70.0961C160.692 70.6382 158.69 71.2368 155.813 71.7458C148.485 73.0425 149.43 67.1497 144.23 65.2641C139.03 63.3785 134.54 69.6242 127.216 70.215C119.892 70.8059 114.687 64.4393 111.141 63.3785C107.596 62.3177 98.8501 64.9112 89.2774 65.6229C79.7047 66.3346 75.9206 61.2589 66.9385 61.023C57.9565 60.787 58.0757 65.3831 50.6288 65.619C43.1819 65.855 35.5003 58.4295 28.8825 57.6047C22.2647 56.7799 20.7276 63.2596 15.5277 63.6145C12.3342 63.8329 7.49208 61.5163 4.23013 59.697C3.80381 61.6216 3.37357 63.5111 2.95898 65.3012C5.96477 66.9619 9.1047 68.3688 12.3459 69.5072C19.5542 72.1006 21.328 67.8576 26.6472 65.0223C31.9665 62.1871 42.601 68.9222 49.4574 71.034C56.3137 73.1458 62.1023 68.7935 67.4216 66.5491C72.7408 64.3047 80.0685 69.2596 85.9763 70.2033C91.8842 71.1471 96.0223 69.2596 104.06 68.7877C112.097 68.3158 116.233 74.4425 122.024 76.0941C127.815 77.7458 135.025 71.97 140.461 71.3811C145.898 70.7922 147.789 76.2131 151.927 77.7458C154.636 78.748 160.898 76.566 164.893 74.9417C163.933 73.3369 162.968 71.6775 162.061 70.0961Z" fill="#E94C43"/>
<path d="M159.607 65.6073C158.891 64.1175 158.119 62.3138 157.323 60.319C156.237 60.5033 155.141 60.6199 154.041 60.668C149.197 60.904 147.423 54.7772 142.814 53.7165C138.205 52.6557 132.058 58.6654 127.214 58.7863C122.37 58.9072 121.185 53.6014 116.104 52.4217C111.024 51.242 108.303 54.7811 102.276 56.7837C96.2491 58.7863 93.8848 54.3092 89.2754 53.4844C84.6661 52.6596 82.8924 55.487 75.8013 55.723C68.7103 55.9589 64.5644 47.8237 60.4342 46.9969C56.304 46.1702 51.3348 52.0668 42.7066 52.4158C34.0785 52.7649 32.4241 46.408 26.7509 45.0762C21.0777 43.7444 17.8861 48.0577 14.5772 49.4617C12.1973 50.4717 8.4112 49.4851 6.47124 48.8513C6.37346 49.4337 6.26851 50.0051 6.15639 50.5653C5.87674 51.9791 5.56972 53.4337 5.2666 54.902C5.96084 55.1146 6.73917 55.3408 7.61333 55.5728C12.342 56.8442 12.9326 54.4204 20.2602 51.357C27.5879 48.2936 29.125 51.2381 35.3888 55.5728C41.6526 59.9076 47.2065 57.0138 54.0628 54.3034C60.9192 51.593 63.5084 54.6583 69.0623 57.5267C74.6162 60.395 82.7731 58.1877 86.6628 57.5267C90.5525 56.8656 92.8092 59.9563 96.5914 61.253C100.374 62.5497 105.828 59.0184 111.499 57.5267C117.17 56.035 120.362 62.0779 126.508 63.8445C132.655 65.6112 136.791 60.0733 140.927 59.1315C145.063 58.1897 148.608 64.5523 152.983 65.9661C155.109 66.6622 157.606 66.2293 159.607 65.6073Z" fill="#E94C43"/>
<path d="M153.397 49.6768C152.269 50.3279 150.928 50.5093 149.666 50.1818C146.24 49.355 145.53 46.9 141.748 44.8272C137.966 42.7544 136.902 44.0472 131.579 46.0557C126.256 48.0641 123.305 48.6491 120.586 46.0557C117.868 43.4623 114.328 39.3381 109.713 41.2237C105.098 43.1093 100.612 47.1165 97.0662 46.2936C93.5207 45.4707 89.148 38.9871 84.5973 39.3401C80.0466 39.693 78.7481 42.1694 75.6758 42.8773C72.6036 43.5851 71.4204 43.4623 71.4204 43.4623L75.1361 48.5614C75.1361 48.5614 81.0205 42.6374 85.5008 43.9322C89.9811 45.227 92.6993 51.7106 98.7265 50.8857C104.754 50.0609 108.418 44.757 113.501 45.9367C118.584 47.1165 122.247 54.304 127.447 53.3602C132.646 52.4164 137.029 47.0151 141.157 48.5965C145.286 50.1779 146.357 54.7759 150.139 54.7759C151.764 54.7525 153.374 54.4761 154.913 53.9569C154.405 52.549 153.896 51.1139 153.397 49.6768Z" fill="#E94C43"/>
<path d="M149.68 38.635C148.139 39.415 145.91 40.2983 143.993 40.1618C140.684 39.9278 137.612 33.5632 133.357 33.2103C129.101 32.8573 125.085 37.3344 120.593 37.6951C116.101 38.0559 111.611 31.8043 107.118 30.3887C102.626 28.973 101.33 32.0305 94.8275 33.7991C88.3251 35.5677 87.2632 31.3246 83.4224 31.3246C79.5816 31.3246 71.4268 32.6214 71.4268 32.6214L72.4906 38.6311C72.4906 38.6311 78.0445 35.5658 82.5365 34.741C87.0286 33.9161 88.6811 37.8063 92.9364 39.3234C97.1918 40.8404 104.4 36.1566 108.302 35.1017C112.203 34.0468 115.393 40.1716 120.947 42.4082C126.5 44.6448 130.285 38.401 135.485 37.6191C140.684 36.8372 142.102 43.35 146.004 44.8339C147.981 45.5866 150.048 45.103 151.608 44.4439C150.922 42.3984 150.273 40.4348 149.68 38.635Z" fill="#E94C43"/>
<path d="M147.914 33.2556L147.505 32.0252C147.071 30.7285 146.694 29.3889 146.367 28.0571C144.275 29.032 141.449 30.0168 138.676 30.0207C133.282 30.0207 130.165 24.1357 125.556 23.8998C120.946 23.6638 115.629 28.2599 111.499 27.554C107.369 26.8481 102.503 22.3691 97.0723 22.3691C91.6416 22.3691 90.9278 24.2547 87.0263 23.539C83.1249 22.8234 80.4047 19.6586 76.6264 19.7756C72.8482 19.8926 68.9448 20.9456 68.9448 20.9456L69.6488 26.7291C69.6488 26.7291 74.9681 23.7574 78.8676 24.7792C82.767 25.801 85.9586 28.7395 89.86 27.9147C93.7614 27.0899 95.4139 25.7698 101.443 26.3138C107.472 26.8578 110.425 32.7486 116.216 32.3938C122.006 32.0389 126.616 27.4116 130.517 28.4939C134.418 29.5761 136.775 35.11 140.917 34.9911C143.18 34.9072 145.917 34.0356 147.914 33.2556Z" fill="#E94C43"/>
<path d="M144.365 15.4874C144.365 15.4874 134.313 23.7572 129.412 21.3763C124.511 18.9954 117.225 11.2365 112.451 12.3558C107.678 13.4751 100.766 19.1221 91.2172 17.8683C81.668 16.6145 76.6421 13.7344 71.1136 14.1108C69.9207 14.1907 68.6789 14.2258 67.3979 14.1946V16.3571C67.3979 16.3571 74.9622 14.9434 80.0448 16.3571C85.1275 17.7708 85.5988 18.2427 90.8007 19.1865C96.0026 20.1303 100.139 23.0747 106.641 21.0721C113.143 19.0695 111.313 15.8833 118.222 17.2619C125.131 18.6405 127.926 24.463 132.293 24.7672C135.091 24.9622 140.983 22.1231 144.867 20.0523C144.492 17.336 144.365 15.4874 144.365 15.4874Z" fill="#E94C43"/>
<path d="M71.6161 21.3765C71.3521 19.5318 70.8339 16.8565 70.2882 14.1617C64.9416 14.421 58.7619 13.6976 53.1474 10.4821C47.2414 7.09893 43.8504 3.08983 37.1916 4.96959C30.5328 6.84934 29.023 13.7444 23.872 10.4821C18.7209 7.21983 13.7028 2.4639 11.5517 1.46162C10.1872 0.836533 8.75361 0.373809 7.2806 0.0830078C6.75347 4.45205 6.75347 8.86834 7.2806 13.2374C8.01004 19.1613 8.39334 32.6725 7.1398 43.9725C8.79679 44.5953 10.5374 44.9692 12.3046 45.082C17.5632 45.3999 19.7183 40.1721 23.8641 38.9202C28.01 37.6683 35.7933 47.0632 42.7103 47.8139C49.6273 48.5646 53.0144 42.4282 56.908 41.6755C60.8016 40.9228 67.965 48.3151 70.5972 49.1925C71.3496 49.4543 72.1538 49.5331 72.9429 49.4226C73.732 49.312 74.4833 49.0152 75.1342 48.5568C75.1342 48.5568 72.3709 26.6374 71.6161 21.3765Z" fill="#003E87"/>
<path d="M12.6664 3.93555L11.7688 4.93782L9.29688 3.93555L10.9826 6.34569L10.7382 8.99957L12.6664 8.70318L15.328 11.3571L14.9192 8.89232L16.3605 8.43213L13.6442 6.48218L12.6664 3.93555Z" fill="white"/>
<path d="M13.3722 14.0664L12.2575 15.0667L9.81299 14.0664L11.5926 16.4492L11.1448 18.561H13.2079L15.4354 20.4564L15.1909 18.5064L16.6302 17.9117L14.3774 16.5565L13.3722 14.0664Z" fill="white"/>
<path d="M16.6304 13.6587L18.2887 15.6633L17.88 17.504L19.8356 16.9639L21.5194 17.9662L21.3844 16.3672L22.6615 15.3376L20.8408 14.8775L20.0273 13.3877L19.0221 14.3627L16.6304 13.6587Z" fill="white"/>
<path d="M19.6459 20.4561L18.6407 21.8444L16.6304 22.1155L18.1381 23.108L17.7372 24.7713L19.2743 23.2874L20.6746 23.5136V22.2052L21.535 20.7173L20.1329 21.2146L19.6459 20.4561Z" fill="white"/>
<path d="M16.3605 25.6312L14.708 25.407L13.7576 23.4688L12.8287 24.551L10.4585 24.0089L11.9056 25.992L11.5888 27.8405L13.2218 27.2088L15.1598 28.6517L14.9329 26.9397L16.3605 25.6312Z" fill="white"/>
<path d="M18.6409 26.0605L17.6924 27.8857L16.1104 28.652L17.1038 29.2838L16.9239 31.0427L18.416 29.3287H19.8612L19.3195 28.0222L20.5848 26.0605L19.0829 26.9848L18.6409 26.0605Z" fill="white"/>
<path d="M18.3476 33.6105L17.6924 32.7096L16.9689 34.9793L15.3398 36.1805L16.3607 36.6309V38.3001L17.6924 36.3599L19.0829 36.3151L18.6409 34.6478L19.9531 32.4834L18.3476 33.6105Z" fill="white"/>
<path d="M16.11 32.664H14.1192L13.4093 31.4473L12.4922 32.664L9.81299 32.4827L11.6337 33.8808L11.3168 35.9088L12.9615 34.9786L14.7978 35.9088L14.436 34.0622L16.11 32.664Z" fill="white"/>
<path d="M12.9615 38.8398L11.9954 40.4174H9.81299L11 41.9052L10.7282 43.7986L12.4472 42.9425L14.3461 43.7986L13.9393 41.8603L15.3395 40.1483L13.6675 40.4174L12.9615 38.8398Z" fill="white"/>
<path d="M22.2117 33.25L21.3532 34.9796L19.646 36.2256L20.5847 36.7677V38.5695L22.2117 37.0817L23.7958 37.614L23.479 35.9097L24.8342 34.9796L22.8903 34.6033L22.2117 33.25Z" fill="white"/>
<path d="M25.5127 30.7712L26.733 32.1226L26.1228 34.1525L28.452 33.6786L30.6227 36.2253L30.4408 34.1525L31.9329 33.9263L29.4923 32.2591L28.7238 30.0205L27.5465 31.0423L25.5127 30.7712Z" fill="white"/>
<path d="M23.886 28.0662L24.1109 29.7334L22.6618 29.3278L20.9917 31.0418L21.2185 29.3278H19.8613L21.5353 27.5709L22.6618 25.541L23.3873 26.8494L25.1512 26.6681L23.886 28.0662Z" fill="white"/>
<path d="M25.5127 23.0629L26.778 24.1452L26.1463 26.06L28.1801 25.5413L30.4858 27.5712L30.169 25.3171L31.5712 25.0909L29.3555 23.6928L28.5419 21.5303L27.4116 22.8367L25.5127 23.0629Z" fill="white"/>
<path d="M28.7241 14.4971L27.9087 15.6768L26.0098 16.6615L27.0501 16.9774L26.8233 18.514L28.3154 17.6521L30.2143 18.9157L29.8545 17.0671L31.3447 16.1194L29.4458 15.6768L28.7241 14.4971Z" fill="white"/>
<path d="M31.5713 12.5587L32.6567 13.3875L32.3398 15.1288L34.2837 14.8129L36.4544 16.9773L36.0477 14.497L37.4029 14.066L34.8724 12.5587L34.0588 10.8467L33.1084 12.2448L31.5713 12.5587Z" fill="white"/>
<path d="M37.4028 9.71992L38.5332 11.5665V13.5516L40.2971 13.3878L42.241 15.677L41.8792 13.3878L43.0545 12.6975L41.0148 11.3579L39.8454 8.6377L39.0768 10.0339L37.4028 9.71992Z" fill="white"/>
<path d="M42.7378 7.149L44.0031 9.31149V11.6124L45.9489 11.8815L47.8928 14.0655L47.3041 11.357L48.5244 10.6063L46.4006 8.99755L45.2703 6.29297L44.5917 7.64624L42.7378 7.149Z" fill="white"/>
<path d="M34.4869 7.91563L36.1374 8.63711L35.5957 7.239L37.1778 6.29327H35.189L36.2469 5.27734C34.393 5.97738 32.9654 7.06155 31.7256 8.12037L32.7464 8.09502V9.1324L34.4869 7.91563Z" fill="white"/>
<path d="M25.3483 11.5762L24.5309 12.4556L22.5068 12.6701L23.69 13.7016L23.4318 15.3981L25.0041 14.1189L26.4669 14.3237V13.2726L27.5445 12.0871L26.1443 12.4985L25.3483 11.5762Z" fill="white"/>
<path d="M29.467 10.4795L28.9292 11.4467L27.3784 12.7551L28.0883 12.4763L27.8087 13.4864L29.467 11.9829H30.7147L30.4996 11.1679L31.6631 9.90039L30.0908 10.7369L29.467 10.4795Z" fill="white"/>
<path d="M25.151 15.8268L24.7306 15.1813L23.7821 16.8134L22.3408 17.9659H23.2228L22.7711 19.1963L24.3434 17.4569L25.5128 17.1898L25.2899 16.3201L26.4535 14.9883L25.151 15.8268Z" fill="white"/>
<path d="M23.8917 20.4559L23.481 19.7754L22.5071 21.5303L21.1558 23.0396L21.9967 22.7822L21.5351 24.2408L23.1368 22.6145L24.3962 22.439L24.2574 21.2145L25.5128 19.7754L23.8917 20.4559Z" fill="white"/>
<path d="M56.7675 12.8418L56.0987 14.3452L54.5068 14.0664L55.6372 15.8486L55.4533 17.9741L57.0687 17.2214L58.8346 18.1457L58.4669 16.7709L59.4799 15.8486L57.671 15.0101L56.7675 12.8418Z" fill="white"/>
<path d="M52.1169 15.6768L51.276 17.1139L49.252 16.7492L50.6854 18.6816V20.8285L52.1169 20.1636L53.9669 21.0859L53.6012 19.604L54.8508 18.7031L52.8698 17.9952L52.1169 15.6768Z" fill="white"/>
<path d="M46.5826 17.4785L45.8942 19.175L43.8486 18.3813L45.3994 20.8929L45.2156 22.8253L47.0343 22.5035L48.8217 24.198L48.4345 22.1584L49.381 21.2575L47.488 20.2279L46.5826 17.4785Z" fill="white"/>
<path d="M41.0149 19.5391L40.0821 20.8377L38.1226 19.8179L39.7359 22.5673L39.5678 24.7708L41.2437 24.5504L43.5044 26.7734L43.0546 24.4549L44.1282 23.8758L41.9751 22.2436L41.0149 19.5391Z" fill="white"/>
<path d="M34.9133 20.1855L33.9668 21.531L31.6631 20.5931L33.2882 22.8687L33.1044 25.037L34.9133 24.9083L37.1955 27.572L36.8513 25.1443L38.1224 24.9083L35.8403 22.933L34.9133 20.1855Z" fill="white"/>
<path d="M34.5908 30.9609L35.5608 30.0211L36.3782 32.3571L38.897 34.311L37.4029 34.5898L37.7119 36.5007L35.4747 34.2037L33.6658 34.3539V32.2928L31.9331 29.7598L34.5908 30.9609Z" fill="white"/>
<path d="M38.7896 29.7591L40.2289 31.6252L40.1018 33.9223L41.9322 33.6005L43.9563 34.8251L43.44 33L44.5801 31.9704L42.644 31.3464L41.9107 29.3711L41.015 30.4884L38.7896 29.7591Z" fill="white"/>
<path d="M46.5179 28.3848L44.7324 28.5135L46.0446 29.7595L45.9586 31.1537L47.4448 30.1885L49.0367 30.3172L48.6495 29.2642L49.7055 27.8485L48.0041 28.1703L47.218 27.1836L46.5179 28.3848Z" fill="white"/>
<path d="M36.0771 38.7973L34.763 39.6339L32.6313 38.4736L34.1606 40.6205L33.7304 42.4671L35.6254 42.6173L37.9936 45.0781L37.7785 42.8961L39.4349 42.3599L36.744 40.8779L36.0771 38.7973Z" fill="white"/>
<path d="M39.4346 38.6019L40.8778 40.1912L40.4906 41.952L42.19 41.4157L44.128 42.2523L43.6117 40.4271L44.7323 39.0972L43.0524 39.0758L42.19 37.6367L41.308 38.9022L39.4346 38.6019Z" fill="white"/>
<path d="M47.5094 32.978L46.6157 34.3742L44.7324 35.4252L46.1209 36.0044L45.851 37.6365L47.5094 36.1116L49.0797 35.8542L48.585 34.5243L49.7055 32.6777L47.9396 33.6001L47.5094 32.978Z" fill="white"/>
<path d="M52.2029 32.5068L51.405 34.1175L49.7056 35.5761L50.9532 35.8335L50.8027 37.5085L52.3535 36.0265L54.3775 36.3482L53.7517 34.8253L54.9368 33.3005L53.0418 33.5364L52.2029 32.5068Z" fill="white"/>
<path d="M49.8346 39.2051L48.1117 40.3205L47.218 39.4625L46.6157 41.5021L44.7324 42.832L46.2382 43.3468L46.1522 45.2792L47.789 43.3682L49.3809 43.0036L48.7571 41.3734L49.8346 39.2051Z" fill="white"/>
<path d="M58.3807 36.3906L57.4557 37.5079L55.4316 37.3149L56.6813 38.754L56.6148 40.4914H58.3807L60.6199 42.2522L60.2972 40.4485L61.3962 40.1482L59.071 38.4732L58.3807 36.3906Z" fill="white"/>
<path d="M61.0283 35.834L62.6652 38.1525L62.3425 40.1278L64.302 40.3423L66.3906 42.7037L66.0894 40.3637L67.0359 40.1707L65.0334 38.4742L64.0321 35.834L63.1814 36.7797L61.0283 35.834Z" fill="white"/>
<path d="M59.3506 31.6463L59.7808 33.9004L57.7138 32.0987L55.9048 32.4204L56.206 30.681L54.7217 29.9089L56.6812 29.3707L57.5632 27.9121L58.4139 29.7802L60.7058 31.0242L59.3506 31.6463Z" fill="white"/>
<path d="M61.6972 28.3839L61.3961 30.3807H63.203L65.3346 32.9351L64.8399 30.1447L65.9155 29.3706L63.8719 27.912L62.7728 25.4648L62.149 26.7733L60.1895 26.3443L61.6972 28.3839Z" fill="white"/>
<path d="M53.4504 28.2983L53.8376 29.48H52.2242L50.7164 31.2388V30.0201L49.8345 30.1878L51.2758 28.7273L52.0521 27.1829L52.8265 27.6119L54.5925 26.7734L53.4504 28.2983Z" fill="white"/>
<path d="M52.4825 25.4653L50.8027 26.9882L50.9748 25.6583L49.7056 25.2508L51.5341 24.5839L52.2126 23.4256L53.0203 24.0047L54.7217 23.3184L53.6872 24.5624L54.1194 25.4653H52.4825Z" fill="white"/>
<path d="M55.7326 24.6272L54.8506 24.5414L56.3134 23.7049L57.2834 22.3945L57.8642 23.04L59.8452 22.3945L58.6171 23.8336L59.0278 25.1537L57.3479 24.7715L55.6895 25.8518L55.7326 24.6272Z" fill="white"/>
<path d="M65.4854 23.9834L66.9071 25.9801V28.749H68.4794L70.2648 30.7243L70.0067 27.8053L70.9767 26.7737L68.9429 25.4653L68.0902 22.7607L67.2943 24.4124L65.4854 23.9834Z" fill="white"/>
<path d="M69.4904 34.8252L68.3933 36.1122L66.6704 35.4687L68.231 37.637L68.0804 39.8054L69.684 39.4836L71.6435 40.8349L71.4264 38.9903L72.0307 37.9373L70.1573 37.0793L69.4904 34.8252Z" fill="white"/>
<path d="M59.4797 19.6678L58.4451 20.4848L58.6172 21.0854L57.3481 21.2141L55.6037 22.6102L55.8188 21.7503L54.7217 21.5787L56.3135 20.8377L57.0997 19.5391L57.7138 20.2059L59.4797 19.6678Z" fill="white"/>
<path d="M61.3317 19.8833L59.6733 20.4215L61.0286 20.6788L60.7059 22.2018L62.3427 21.3009L64.3023 22.2018L63.743 20.5501L64.9691 19.4328L63.0526 19.6259L62.5148 18.9609L61.3317 19.8833Z" fill="white"/>
<path d="M61.0284 18.6598L60.7057 19.2175L62.1275 18.381L63.6783 18.145L63.4612 17.8447L64.3451 17.2422L62.7298 17.6068L62.3211 17.2422L61.6972 17.9734L60.1895 18.5955L61.0284 18.6598Z" fill="white"/>
<path d="M66.4123 17.0927L65.1196 17.4788L65.9156 17.7147L65.4853 18.7463L67.2297 17.9195L69.1032 18.7463L68.6945 17.4788L69.5549 16.7281L67.9611 16.9211L67.4077 16.4492L66.4123 17.0927Z" fill="white"/>
<path d="M67.0363 14.9238L66.434 15.6765L64.5605 16.0626L65.7984 16.2771L65.5931 17.0707L67.0363 16.32L68.5226 16.7061L68.2312 16.1269L69.3518 15.6765H67.4881L67.0363 14.9238Z" fill="white"/>
<path d="M70.4157 43.6914L69.6628 45.0778L67.5742 44.6995L69.1465 46.2673V48.0261L70.7403 47.5328L72.4613 48.5L72.2246 46.6105L73.2807 45.2085L71.2136 45.2787L70.4157 43.6914Z" fill="white"/>
</svg>
