<svg width="171" height="90" viewBox="0 0 171 90" fill="none" xmlns="http://www.w3.org/2000/svg">
<path d="M7.28658 0C6.75945 4.36904 6.75945 8.78533 7.28658 13.1544C8.1666 20.2951 8.54404 38.4608 6.15625 50.4881C3.76846 62.5154 -1.52588e-05 77.5476 -1.52588e-05 77.5476C-1.52588e-05 77.5476 10.0518 79.5522 14.1977 81.8083C18.3436 84.0643 26.7605 85.8174 31.0335 83.1849C35.3065 80.5525 42.3408 78.8014 46.6138 79.3026C50.8868 79.8037 62.063 86.3224 74.7569 86.8196C87.4507 87.3169 107.55 89.4501 115.465 87.82C123.379 86.1898 132.428 82.0579 139.087 84.1872C145.745 86.3165 151.016 90.9535 155.922 89.8245C160.829 88.6955 171 85.1895 171 85.1895C171 85.1895 164.591 74.5408 160.571 67.4001C156.55 60.2593 150.011 39.4631 147.503 31.9461C144.996 24.429 144.363 15.4085 144.363 15.4085C144.363 15.4085 134.311 23.6783 129.412 21.2974C124.513 18.9165 117.225 11.1576 112.449 12.2769C107.674 13.3962 100.764 19.0432 91.2153 17.7894C81.666 16.5356 76.6421 13.6555 71.1136 14.0318C65.5851 14.4082 59.0514 13.7803 53.1455 10.3991C47.2396 7.01788 43.8486 3.00682 37.1897 4.88658C30.5309 6.76633 29.0231 13.6614 23.8721 10.3991C18.721 7.13682 13.7029 2.38089 11.5518 1.37862C10.189 0.754262 8.75749 0.291558 7.28658 0Z" fill="#E94C43"/>
<path d="M76.7966 47.2792L50.0929 33.2064L77.9328 36.4394L79.0671 25.6152C79.0671 25.6152 83.2971 30.9523 88.6124 37.6796L109.571 40.1151L97.5554 49.0107C103.974 57.1615 109.618 64.3666 109.706 64.624L90.2884 54.3907L74.8547 65.8193L76.7966 47.2792Z" fill="#FFD705"/>
</svg>
