<svg width="31" height="66" viewBox="0 0 31 66" fill="none" xmlns="http://www.w3.org/2000/svg">
<path d="M23.4436 7.98502C23.8078 4.3035 21.1186 1.02376 17.4371 0.659541C13.7556 0.295321 10.4758 2.98454 10.1116 6.66606C9.74741 10.3476 12.4366 13.6273 16.1181 13.9915C19.7997 14.3557 23.0794 11.6665 23.4436 7.98502Z" fill="#333333"/>
<path d="M30.9049 29.0716C30.5143 27.8533 30.2214 28.2904 29.6378 26.635C29.0542 24.9795 27.3476 21.7639 26.4222 20.2061C25.4968 18.6483 23.7437 16.8441 23.7437 16.8441C23.7437 16.8441 22.8672 15.821 22.1348 15.7722C21.521 15.7303 15.7525 15.656 13.3158 15.835C13.4408 16.0619 13.5398 16.3021 13.6111 16.5511L20.4793 29.6064L24.3273 28.9251L25.8386 32.6266L22.8672 34.1356C22.8672 34.1356 22.086 36.1817 19.9446 36.6211C17.8032 37.0606 16.3384 35.6469 16.1454 35.5493C15.9524 35.4516 13.8064 35.3051 12.9786 33.4567C12.1509 31.6083 14.2435 30.097 14.2435 30.097C14.2435 30.097 11.0419 20.2387 10.0212 16.7371C9.86448 16.8664 9.7281 17.0184 9.6166 17.1882C8.93536 18.2112 0.506963 34.968 0.216329 36.3305C-0.0743048 37.693 -0.271913 38.9136 0.99525 39.4484C2.26241 39.9832 3.23662 40.3784 4.30615 38.6695C5.37568 36.9606 9.51894 28.4881 9.51894 28.4881C9.51894 28.4881 9.95837 54.2963 9.86072 57.8606C9.76306 61.425 9.37247 63.7059 9.90956 64.5848C10.4467 65.4636 10.8396 66.1425 12.8322 65.9472C14.8247 65.7519 15.1224 63.9012 15.2665 63.5129C15.4107 63.1246 15.4618 43.3941 15.4618 43.1988C15.4618 43.0035 16.1919 40.8737 16.6802 41.055C17.1684 41.2364 17.7032 42.3222 17.8427 43.1988C17.9822 44.0753 17.9403 62.6363 17.9403 63.2199C17.9403 63.8035 18.4263 65.8008 19.9376 65.9472C21.4489 66.0937 23.2485 65.6078 23.5415 63.4153C23.8344 61.2227 23.6391 34.1868 23.6391 34.1868C23.6391 34.1868 27.6336 32.9219 29.0449 31.9965C30.4562 31.0712 31.2932 30.2877 30.9049 29.0716ZM23.5973 28.2904L23.5484 24.1518L25.1062 27.4627L23.5973 28.2904Z" fill="#333333"/>
<path d="M11.9065 15.4785C11.9065 15.4785 10.8346 15.5762 10.8835 16.5016C10.9323 17.427 14.9756 29.4592 14.9756 29.4592C15.667 29.3399 16.3666 29.2745 17.0681 29.2639C17.8039 29.2811 18.5368 29.3628 19.2584 29.508C19.2584 29.508 13.0481 16.655 12.8784 16.3551C12.425 15.5622 11.9065 15.4785 11.9065 15.4785Z" fill="#333333"/>
<path d="M15.4131 30.3848L17.022 34.8187C17.668 35.3678 18.5007 35.6467 19.3471 35.5975C20.7608 35.4999 21.9303 33.9421 21.9303 33.9421L19.7866 30.3359L15.4131 30.3848Z" fill="#333333"/>
<path d="M13.9528 31.9949C13.7575 32.2855 13.904 32.9692 14.2434 33.6016C14.5829 34.234 15.7547 34.5316 15.7547 34.5316L14.8247 30.9766C14.8247 30.9766 14.1481 31.702 13.9528 31.9949Z" fill="#333333"/>
<path d="M24.572 31.8933L23.7908 29.752L20.8193 30.3355L22.2818 33.2582L24.572 31.8933Z" fill="#333333"/>
</svg>
