<svg width="53" height="49" viewBox="0 0 53 49" fill="none" xmlns="http://www.w3.org/2000/svg">
<path d="M52.4218 0C52.4218 0 36.7939 6.02279 36.2256 6.59386C35.6573 7.16493 34.5152 6.6746 33.4566 6.26788C32.398 5.86117 19.2104 0.417859 19.2104 0.417859C19.2104 0.417859 11.4772 3.83597 8.46583 4.97534C5.45446 6.1147 0 8.55774 0 8.55774C0 8.55774 1.62965 14.9064 1.46529 21.7454C1.30094 28.5843 2.11716 46.9785 2.11716 48.1206C2.11716 49.2628 18.8872 40.7106 20.7592 40.6298C22.6312 40.5491 32.9691 46.4798 34.4344 48.1206C35.8997 49.7614 51.1209 40.3039 52.4218 40.0615C53.7227 39.8192 52.4218 0 52.4218 0ZM6.67461 41.7581C6.35146 41.6773 7.1649 32.8047 7.1649 32.0721C7.1649 31.3395 11.154 30.2808 11.4772 30.3616C11.4772 30.3616 14.1654 37.2006 14.1654 38.4208C14.1654 39.6409 7.00054 41.8389 6.67461 41.7581ZM6.59383 28.7348C6.35147 28.7348 5.94196 21.8958 5.94196 19.2912C5.94196 16.6865 5.61882 10.9089 5.6996 10.6554C5.78039 10.4019 20.1074 5.201 20.1074 5.201C20.1074 5.201 25.3167 20.5058 25.4783 21.0796C25.6398 21.6535 6.83897 28.7348 6.59383 28.7348ZM35.4094 42.4907C33.7825 42.981 29.6318 25.6427 29.2251 22.5477L47.7028 14.9789C47.7028 14.9789 47.7028 33.8633 47.7836 36.8747C47.8643 39.8861 37.039 42.0032 35.4094 42.4907ZM47.2961 11.4772C46.9701 11.6415 28.9103 19.5363 28.654 19.4555C28.3977 19.3747 24.1773 7.47692 23.8514 7.00056C23.8514 7.00056 31.0135 9.76675 33.6182 11.0705C36.2228 12.3742 47.8643 6.18709 47.8643 6.18709C47.8643 6.18709 47.6192 11.3156 47.2961 11.4772Z" fill="#333333"/>
</svg>
