<svg width="158" height="42" viewBox="0 0 158 42" fill="none" xmlns="http://www.w3.org/2000/svg">
<path d="M14.1638 26.5557C14.1638 25.6475 14.4963 21.5183 14.4963 21.5183L8.95531 21.2773L8.7915 34.5684L15.231 34.7346C15.231 34.7346 14.1638 27.464 14.1638 26.5557Z" fill="#333333"/>
<path d="M156.335 33.9868C156.253 32.9148 156.253 30.1901 156.747 28.6217C157.241 27.0534 157.077 23.5024 157.077 23.0062C157.077 22.5099 152.454 23.2471 152.454 23.2471L153.114 24.9816C153.114 24.9816 152.29 26.468 151.382 27.9521C150.473 29.4361 151.96 29.8528 152.29 30.0985C152.62 30.3443 150.967 35.7961 150.555 34.2277C150.143 32.6594 148.987 29.1084 148.409 28.6146C147.831 28.1207 148.079 27.0438 148.575 26.7981C149.071 26.5524 150.473 23.9071 150.803 22.7508C151.133 21.5944 147.171 20.0285 145.85 19.2841C144.53 18.5397 143.619 24.3215 143.126 27.8701C142.632 31.4187 141.227 30.1828 140.071 31.5849C138.914 32.987 134.87 34.9698 134.87 34.9698C134.87 34.9698 124.301 38.3569 124.219 38.0245C124.137 37.692 121.087 34.1458 119.926 33.3195C118.765 32.4932 111.422 33.0786 111.422 33.0786C111.166 31.6063 111.028 30.1159 111.01 28.6217C111.01 26.3909 109.027 8.64062 109.027 8.64062C109.027 8.64062 101.927 9.05501 101.349 9.13691C100.771 9.21882 103.578 35.9695 103.578 36.2177C103.578 36.4658 88.7183 36.0514 88.4003 35.9767C88.0823 35.9021 87.244 32.7558 87.244 31.8476C87.244 30.9393 86.6658 21.857 86.7477 20.4549C86.8296 19.0528 81.5464 21.6932 80.1419 21.5269C78.7374 21.3607 71.4691 16.6557 70.6476 15.986C69.8261 15.3163 63.7142 20.5272 63.548 20.7753C63.3818 21.0235 63.3071 22.5918 63.3071 22.5918C63.3071 22.5918 64.6297 22.3508 66.7762 22.1798C68.9227 22.0087 66.5353 22.9218 66.2799 23.5C66.0246 24.0782 65.5379 26.6318 65.6198 27.3811C65.7018 28.1303 67.2701 27.793 67.1882 28.4531C67.1063 29.1132 66.4462 34.235 66.4462 34.235C66.4004 33.3632 66.2334 32.5022 65.9499 31.6765C65.4536 30.1058 65.1236 30.3539 64.3816 29.4457C63.6396 28.5375 62.977 29.53 62.5651 29.2819C62.1531 29.0338 62.647 27.5473 62.647 27.5473L64.2997 24.8973C64.2997 24.8973 62.5651 25.0635 61.1678 25.0635C59.7705 25.0635 60.7558 24.8226 60.6739 23.4133C60.592 22.004 60.2596 23.4133 60.0138 23.4133C59.7681 23.4133 57.1229 25.3116 56.9591 25.5598C56.7953 25.8079 54.7283 33.0714 54.7283 33.0714C54.7283 33.0714 51.8374 31.6693 51.2616 31.6693C50.6858 31.6693 48.1297 34.9697 47.2167 35.3841C46.3036 35.7985 36.3998 37.0344 35.4915 37.0344C34.5833 37.0344 0.559509 35.878 0.559509 35.878L0.229492 41.5755L157.26 41.4936C157.26 41.4936 156.417 35.0613 156.335 33.9868Z" fill="#878787"/>
<path d="M21.1811 35.3105C21.1811 34.8961 18.9527 29.2877 20.7692 28.1266C22.5856 26.9654 44.1375 19.9524 44.6193 19.6224C45.1011 19.2924 44.3784 18.8804 43.1329 18.9623C41.8874 19.0442 41.3164 19.8705 41.3164 18.9623C41.3164 18.0541 42.3089 17.3121 40.9044 17.4759C39.8922 17.6196 38.872 17.7001 37.8497 17.7168C36.9415 17.7168 19.7694 23.2577 19.7694 22.918C19.7694 22.5784 17.871 7.81055 17.871 7.81055L17.1266 11.1954L16.3027 11.6073C15.9702 11.7711 15.8064 12.7637 15.8064 12.7637L14.4019 12.8456L16.3027 34.7251C16.3027 34.7251 21.1811 35.7224 21.1811 35.3105Z" fill="#333333"/>
<path d="M35.7953 8.06241L48.4287 8.14669L48.9105 31.5921L51.3051 29.6119C51.3051 29.6119 53.2878 28.5374 53.6179 27.5472C53.9479 26.5571 54.4418 25.897 55.1862 24.8226C55.9306 23.7481 56.0944 23.5843 56.5883 22.758C57.0822 21.9316 57.8266 21.7678 58.4048 20.4476C58.983 19.1274 61.3776 19.7032 61.5366 19.4575C61.6956 19.2118 64.4275 16.5666 65.8296 15.6583C67.2317 14.7501 70.2046 14.09 70.8647 14.5019C71.5248 14.9139 78.1305 19.7875 80.3589 20.2838C82.5874 20.7801 86.0565 17.8892 86.0565 17.8892C86.0565 17.8892 90.2676 19.0455 90.4314 19.3756C90.5953 19.7056 91.5059 32.4209 91.424 34.5674C91.3421 36.7139 101.412 34.4035 101.412 34.4035L99.5957 7.73475L110.825 6.82651C110.825 6.82651 113.475 13.5961 113.475 14.7525C113.475 15.9089 115.951 13.4323 115.951 13.4323L116.941 13.6732C116.941 13.6732 119.088 14.9115 119.336 14.8272C119.584 14.7429 121.152 12.0206 121.152 12.0206C121.152 12.0206 120.574 10.6185 120.326 10.2884C120.078 9.95837 116.693 7.89374 115.043 7.06742C113.393 6.2411 115.703 4.59085 115.703 4.59085L118.261 3.10445L116.529 0.876028C116.529 0.876028 110.988 1.53614 103.318 0.709814C95.6471 -0.11651 89.5304 -0.0321885 88.8631 0.0497211C88.1958 0.131631 84.9001 7.47938 83.7438 9.54399C82.5874 11.6086 80.8528 9.38018 80.6119 9.38018C80.371 9.38018 74.1724 11.1123 73.2641 10.2041C71.3298 8.40547 69.2897 6.72415 67.1547 5.16907C64.76 3.43452 57.8242 1.7843 56.3402 0.794156C54.8562 -0.195987 32.3142 5.82916 32.3142 5.82916L24.8002 19.0383L20.7553 19.8646L20.6733 21.351L36.1953 16.5617L35.7953 8.06241Z" fill="#333333"/>
<path d="M21.9262 29.0334C21.9262 29.0334 21.2661 29.6116 21.2661 29.9417C21.2661 30.2717 22.7526 35.1429 22.7526 35.1429L37.2818 35.803C37.2818 35.803 47.1905 34.1528 47.4363 33.9046C47.682 33.6565 48.2626 31.84 48.2626 31.84L36.1255 31.6762L36.2098 23.9141L21.9262 29.0334Z" fill="#333333"/>
<path d="M123.316 10.1267C123.316 10.1267 120.013 16.3904 118.774 16.9806C117.536 17.5709 116.462 15.0798 115.968 15.1642C115.474 15.2485 113.655 17.9708 113.161 18.9609C113.724 20.2554 114.219 21.5781 114.645 22.9239C115.06 24.4103 115.06 27.135 115.06 27.135C115.06 27.135 117.206 24.3284 117.71 23.7502C118.213 23.172 118.702 21.9337 119.196 21.5194C119.69 21.105 121.673 20.8593 123.077 19.1271C124.482 17.395 126.544 13.7596 126.544 13.7596C126.544 13.7596 130.921 17.6407 132.085 18.7128C133.248 19.7848 135.055 20.8593 136.293 22.0976C137.532 23.3359 141.579 25.4005 141.579 25.4005C141.579 25.4005 141.001 23.8321 138.688 22.6757C136.375 21.5194 139.1 21.3555 138.854 20.8593C138.609 20.363 128.946 11.777 128.616 11.365C128.286 10.953 139.348 8.55841 139.348 8.55841L140.093 7.56825C140.093 7.56825 137.862 6.66002 137.78 6.24565C137.698 5.83128 138.524 5.2555 138.358 4.42917C138.192 3.60285 125.561 8.31023 124.734 8.8065C123.908 9.30278 123.744 8.31027 123.002 7.40203C122.26 6.4938 120.856 5.00736 119.699 4.42917C118.543 3.85099 117.387 4.84355 116.233 5.58556C115.079 6.32756 123.316 10.1267 123.316 10.1267Z" fill="#333333"/>
<path d="M136.932 17.0623C136.932 17.3032 138.255 18.3006 139.163 18.7125C140.071 19.1245 139.987 19.3726 140.565 21.5191C141.143 23.6656 141.887 22.8417 142.217 23.5018C142.548 24.1619 142.381 25.7303 141.721 26.5566C141.061 27.3829 140.071 26.1446 139.163 25.8122C138.255 25.4797 134.292 21.9335 133.622 21.1891C132.952 20.4447 128.584 26.9709 128.172 27.8768C127.76 28.7826 124.043 19.9508 124.043 19.9508C124.043 19.9508 121.073 22.4273 120.41 23.5018C119.748 24.5763 115.539 29.0427 115.293 29.2837L115.209 31.8422L117.356 32.0084H119.75C120.41 32.0084 124.703 36.4652 125.118 36.7953C125.532 37.1253 126.604 36.2195 127.512 35.7232C128.421 35.227 133.126 33.9067 135.19 33.3286C137.255 32.7504 137.997 31.594 139.317 30.7701C140.468 30.1157 141.456 29.2098 142.208 28.1201C143.198 26.7999 142.868 25.9736 143.032 23.9933C143.196 22.013 143.694 19.8641 143.694 18.7896C143.694 17.7152 144.684 17.2213 145.263 17.1394C145.841 17.0575 150.876 20.1122 151.62 21.3505C152.365 22.5888 156.407 21.5143 156.407 21.5143C156.407 21.5143 156.737 16.0673 156.737 15.0748C156.737 14.0822 137.17 16.4793 136.922 16.4793C136.674 16.4793 136.932 16.8141 136.932 17.0623Z" fill="#333333"/>
</svg>
