<svg width="79" height="58" viewBox="0 0 79 58" fill="none" xmlns="http://www.w3.org/2000/svg">
<path d="M22.3306 2.7049C24.3133 2.56116 26.3061 2.75785 28.2225 3.28645C31.1939 4.1609 34.4774 4.16088 35.1332 4.37737C35.789 4.59386 36.2963 4.52384 36.9521 5.03323C37.608 5.54262 37.6059 5.90555 37.6059 6.56139C37.6059 7.21722 36.2963 6.12418 37.6059 7.21512C38.9154 8.30606 38.1152 7.57804 38.9154 8.30604C39.7156 9.03404 39.1277 8.51831 41.2501 9.97856C43.3726 11.4388 44.3043 12.0161 44.9581 12.2347C45.6118 12.4533 46.6327 13.6886 46.6327 13.6886C46.6327 13.6886 46.4862 14.7074 46.1954 14.7074C45.9047 14.7074 45.4674 14.4952 45.6139 15.5076C45.7603 16.52 43.3577 15.7198 45.7582 16.6707C48.1587 17.6215 51.9409 20.525 52.9597 21.5523C53.9785 22.5796 54.923 24.0993 54.3414 22.3525C53.7599 20.6057 50.4149 19.5933 52.9597 17.8423C55.5045 16.0912 56.4512 14.7159 56.5233 14.2787C56.5955 13.8414 55.0694 14.8602 55.651 12.4597C56.2325 10.0592 55.9418 7.3658 55.9418 7.3658C55.9418 7.3658 57.5421 5.32824 57.8329 4.9653C58.1236 4.60236 58.1979 3.65574 56.9605 3.80007C55.7231 3.9444 54.56 3.07421 54.56 3.07421C54.56 3.07421 57.2513 2.05545 59.0703 1.39961C60.8892 0.743774 61.18 0.455078 61.18 0.455078C61.18 0.455078 71.4357 16.312 73.9805 20.1663C76.5253 24.0207 79.0001 27.2214 79.0001 27.2214C79.0001 27.2214 77.1812 28.0216 65.5438 28.0216C53.9063 28.0216 39.6498 28.2338 39.6498 28.2338C39.6498 28.2338 32.6669 19.069 29.6849 14.7774C26.7028 10.4858 22.3306 2.7049 22.3306 2.7049Z" fill="#333333"/>
<path d="M3.41895 27.5067L5.2379 28.3069C5.2379 28.3069 19.7852 8.66776 20.0038 8.23266C20.2224 7.79756 21.7485 6.56014 21.7485 6.56014C21.7485 6.56014 36.8052 30.563 37.3146 30.7816C37.824 31.0002 38.552 29.4721 38.4055 29.1813C38.2591 28.8905 31.7856 19.2163 28.43 14.7783C25.0744 10.3402 21.3749 3.43164 21.3749 3.43164L3.41895 27.5067Z" fill="#333333"/>
<path d="M21.5238 9.75781C21.3116 9.8321 15.4875 16.3777 14.2501 18.1245C13.0127 19.8713 10.0328 23.87 9.95854 24.0886C9.88426 24.3072 10.6144 24.0144 11.5589 24.3794C12.5034 24.7445 11.7053 24.8145 12.4333 25.3239C13.1613 25.8333 13.8872 25.6147 14.3966 25.9797C14.906 26.3448 14.5409 24.5237 15.1967 26.5613C15.8526 28.5988 16.0691 29.762 16.0691 30.0528C16.0691 30.3435 14.5409 27.4336 13.9594 27.215C13.3778 26.9964 11.9961 26.9243 11.7053 27.2893C11.4145 27.6544 11.2681 27.077 11.1959 27.7244C11.1238 28.3717 11.7775 29.1804 11.6332 29.6898C11.497 30.3864 11.3993 31.09 11.3403 31.7974C11.3403 31.7974 11.1959 31.2158 10.9158 30.1249C10.6356 29.0339 9.897 29.3247 9.96916 28.3802C9.98167 28.0331 10.0658 27.6924 10.2163 27.3794C10.3668 27.0664 10.5804 26.7878 10.8436 26.5613C11.2066 26.2705 11.5695 25.2517 11.1344 25.2517C10.7101 25.2888 10.2934 25.3868 9.89698 25.5425C9.68474 25.6147 9.16899 25.4704 9.16899 25.4704L7.42432 27.1428V35.6539L10.7693 34.1257L12.0789 34.0536L17.0263 52.0202V34.4165L24.5907 34.2722C24.5907 34.2722 23.8627 33.3256 24.4443 32.5976C25.0259 31.8696 25.3909 31.2901 25.3909 30.7064C25.3909 30.1228 24.9537 29.6898 25.4631 29.3247C25.9725 28.9597 26.7726 28.4524 26.7726 27.943C26.7726 27.4336 26.4819 24.0143 26.4819 24.0143C26.4819 24.0143 27.3542 26.7735 27.645 27.7244C27.9357 28.6752 27.4985 28.671 27.3542 29.1804C27.2587 29.5045 27.1374 29.8203 26.9912 30.1249C26.9912 30.1249 28.5916 29.6898 28.8081 29.762C29.0245 29.8341 29.0203 31.2901 29.5361 30.3435C30.0518 29.3969 30.7735 28.3059 31.2828 28.1616C31.5938 28.0744 31.909 28.0036 32.2274 27.9494C31.8623 28.4388 31.5685 28.9777 31.355 29.5497C31.1428 30.2777 31.6458 31.15 30.5549 31.4408C29.4639 31.7316 29.3175 31.653 28.5916 31.653C27.8657 31.653 27.2077 31.3623 27.1356 31.653C27.0624 31.9636 27.0624 32.287 27.1356 32.5976C27.2077 33.0348 26.4819 33.9814 26.4819 33.9814L27.4264 34.4059V43.2077C27.4264 43.2077 28.5173 42.6262 29.3174 42.2611C30.1176 41.8961 31.1364 41.826 31.6521 41.098C32.0371 40.4797 32.3538 39.8214 32.5967 39.1347C32.5967 39.1347 32.7431 40.5164 32.7431 41.098C32.7431 41.6795 32.2337 41.6796 31.4335 42.1889C30.6334 42.6983 29.0988 43.4263 28.8866 43.5707C28.6743 43.715 30.1219 42.9169 30.4869 43.9357C30.852 44.9545 30.4126 44.8802 30.2747 45.5339C30.1367 46.1876 29.1837 45.9711 30.419 46.8435C31.6543 47.7158 32.5287 46.1898 31.7286 47.9344C30.9284 49.6791 30.1282 51.5001 30.0561 52.7354C29.9839 53.9707 29.9839 57.3921 29.9839 54.2636V49.3819C29.9839 48.7261 29.9096 48.291 29.6931 48.2167C29.4766 48.1424 28.3093 47.3444 28.3836 46.6907C28.4679 46.1258 28.5892 45.5672 28.7465 45.0182H27.5091L27.5834 57.8187H34.9292V29.4712C34.9292 29.4712 25.618 14.3423 24.2363 12.6677C23.3865 11.6484 22.4809 10.677 21.5238 9.75781Z" fill="#333333"/>
<path d="M48.3707 35.5078L41.6786 35.6542L41.6064 41.3276C41.6064 41.3276 44.1534 43.2187 44.7349 42.6371C45.3165 42.0556 48.2264 38.8549 48.2264 38.8549L48.3707 35.5078Z" fill="#333333"/>
<path d="M48.0076 41.2559C48.0076 41.2559 46.1164 42.9284 46.4794 43.2913C46.8423 43.6543 48.3705 44.0193 48.3705 44.0193L48.0076 41.2559Z" fill="#333333"/>
<path d="M48.5173 46.2727C48.5173 46.2727 48.4218 46.2175 48.2626 46.1326C47.5685 45.7527 45.6583 44.7678 45.2423 45.1817C44.7351 45.6911 41.7509 48.4546 41.7509 48.4546L41.6787 50.0549C41.6787 50.0549 48.6616 50.1291 48.5894 49.9105C48.5173 49.6919 48.5173 46.2727 48.5173 46.2727Z" fill="#333333"/>
<path d="M41.532 43.582L43.2788 44.2379L41.3877 46.2733L41.532 43.582Z" fill="#333333"/>
<path d="M59.0613 35.3633L65.972 35.4354L65.8277 38.3453L58.917 36.3078L59.0613 35.3633Z" fill="#333333"/>
<path d="M57.6821 37.1094C57.6821 37.1094 67.4285 39.7285 67.4285 39.9471C67.4285 40.1657 66.9191 41.401 66.9191 41.401L59.5732 39.2913C59.5732 39.2913 58.3359 39.4377 58.1915 39.1469C58.0472 38.8561 57.6821 37.1094 57.6821 37.1094Z" fill="#333333"/>
<path d="M58.917 40.3806L59.2799 40.0898L65.3905 41.8366L65.6091 42.5646L58.9892 43.437L58.917 40.3806Z" fill="#333333"/>
<path d="M57.6796 45.2541L66.4814 43.1465V44.0188L57.6074 47.2916L57.6796 45.2541Z" fill="#333333"/>
<path d="M59.208 49.9829V47.6545L65.8279 45.4727L66.0466 49.5456L59.208 49.9829Z" fill="#333333"/>
<path d="M11.2023 35.8728L9.89276 35.4355L0 39.7271L6.76426 57.6938L8.14811 57.7659C8.14811 57.7659 1.60034 41.0367 1.89111 40.8181C2.18189 40.5995 9.60198 37.5453 9.60198 37.5453L15.131 57.8381L17.5294 57.7659L11.2023 35.8728Z" fill="#333333"/>
<path d="M10.4741 38.7871C10.2619 38.8614 4.14709 41.4062 4.07281 41.6249C3.99852 41.8435 3.56553 42.425 4.14709 42.425C4.72864 42.425 10.9835 40.1688 10.9835 40.1688L10.4741 38.7871Z" fill="#333333"/>
<path d="M13.3123 48.5293L7.85547 51.3649L13.7474 49.911L13.3123 48.5293Z" fill="#333333"/>
<path d="M75.2838 55.0023C74.7744 52.3832 74.3393 49.4733 74.4836 48.601C74.628 47.7286 75.8654 47.3636 74.4836 47.1449C73.1019 46.9263 72.3018 46.7098 71.7245 46.782C71.1471 46.8542 69.6147 44.4473 69.6147 44.1629C69.6147 43.8785 68.4516 41.4037 69.5426 41.3273C70.6335 41.2509 71.5058 41.6181 71.578 40.0899C71.6502 38.5617 71.2872 37.8359 71.6523 36.8893C72.0174 35.9427 72.4524 34.7795 73.5434 34.4166C74.6343 34.0536 75.0694 35.5075 75.0694 33.6164C75.0507 32.2783 74.9536 30.9424 74.7787 29.6156C74.7787 29.6156 46.9936 29.1805 44.6653 29.4034C42.3369 29.6262 40.6644 29.0404 40.1572 29.6156C39.6499 30.1908 39.5735 30.2715 38.992 30.853C38.4104 31.4346 38.8476 31.5067 38.1918 31.581C37.5359 31.6553 36.2285 30.7808 36.2285 30.7808C36.2285 30.7808 36.8822 53.402 36.8101 54.3401C36.7379 55.2782 36.8101 57.978 36.8101 57.978C36.8101 57.978 72.6796 57.8315 73.3163 57.8315C73.953 57.8315 74.5515 57.9779 74.6258 57.7593C74.7001 57.5407 75.7932 57.6193 75.2838 55.0023ZM55.354 50.6364L59.064 50.5642L59.792 51.8016C59.792 51.8016 55.5004 51.7274 54.9104 51.5894C54.3203 51.4514 55.354 50.6364 55.354 50.6364ZM53.7536 50.5642C53.6815 50.7765 54.3352 51.7274 53.0999 51.8016C51.8646 51.8759 50.9902 52.2261 50.918 51.946C50.8645 51.5606 50.8397 51.1719 50.8437 50.7829L53.7536 50.5642ZM48.6597 55.8704C47.4245 55.8704 48.5876 55.4331 48.5876 55.4331L48.6597 54.5608H52.2233L52.2976 55.7982C52.2976 55.7982 49.8992 55.8746 48.6618 55.8746L48.6597 55.8704ZM52.442 52.5976C52.5141 52.3068 55.789 52.5976 55.789 52.5976L55.9334 53.9071C55.9334 53.9071 53.2421 53.9792 52.3698 53.8328C51.4974 53.6863 52.3719 52.8926 52.4441 52.6018L52.442 52.5976ZM55.4983 55.7982C54.0423 55.9425 53.898 55.6518 53.3143 55.361C52.7306 55.0702 53.6793 54.7794 53.898 54.5608C54.1166 54.3422 56.3706 54.4887 56.3706 54.4887L57.2429 55.5796C57.2429 55.5796 56.9543 55.656 55.5004 55.8024L55.4983 55.7982ZM61.5345 55.2145C61.5345 55.2145 59.497 55.2146 58.2617 55.1424C57.0264 55.0702 58.2617 54.1979 58.2617 53.9793C58.2617 53.7607 61.1716 53.767 61.5345 53.767V55.2145Z" fill="#333333"/>
</svg>
