<svg width="79" height="99" viewBox="0 0 79 99" fill="none" xmlns="http://www.w3.org/2000/svg">
<path d="M5.71769 74.5686C5.71769 74.5686 -0.759166 68.9713 1.18472 63.4788C3.1286 57.9863 6.36565 55.0718 6.36565 55.0718C6.84689 57.0216 7.17144 59.0067 7.33622 61.0082C7.55404 64.0412 7.33622 64.976 7.33622 64.976C7.33622 64.976 7.61194 61.1158 7.91249 53.8421C8.21303 46.5684 12.1008 42.9977 12.1008 42.9977C12.1008 42.9977 10.1707 45.3304 11.0806 49.4745C11.7947 52.7392 12.3765 59.0644 12.3765 59.0644C12.3765 59.0644 10.7966 51.5094 15.7625 46.3257C20.7283 41.142 25.0904 39.4187 25.0159 35.3159C24.9415 31.213 25.8017 28.5137 25.8017 28.5137C25.8017 28.5137 29.582 39.4187 26.7751 43.0887C23.9681 46.7586 22.6391 47.0178 23.7421 51.6583C24.845 56.2988 22.3027 57.2776 22.3027 57.2776C22.3027 57.2776 24.2935 58.7418 25.4819 56.0424C26.6703 53.343 27.7953 53.4202 28.9836 51.2613C30.172 49.1023 31.5259 48.9176 31.5259 48.9176C31.5259 48.9176 27.0894 55.7281 28.1675 58.4219C29.2456 61.1158 31.5259 60.4678 31.5259 63.8152C31.5259 67.1625 30.729 68.9134 30.729 68.9134C30.729 68.9134 34.0102 67.2811 33.9026 65.2241C33.7951 63.1672 33.4697 60.7932 35.0883 60.4678L36.7096 60.1452C36.7096 60.1452 34.7795 59.8199 36.0616 64.0303C37.3437 68.2406 38.2426 77.6319 30.729 79.0354C23.2154 80.4388 21.0316 76.5538 20.8276 77.2018C20.6236 77.8498 18.5584 79.1318 14.4142 79.3442C5.97412 79.7991 5.71769 74.5686 5.71769 74.5686Z" fill="#FF9B05"/>
<path d="M17.3593 92.7562C17.3593 92.7562 9.60304 86.056 11.9302 79.4799C14.2573 72.9038 18.1341 69.413 18.1341 69.413C18.7104 71.7477 19.0995 74.1247 19.2976 76.5213C19.5568 80.1388 19.2976 81.2721 19.2976 81.2721C19.2976 81.2721 19.634 76.6564 19.987 67.9406C20.3399 59.2249 24.9942 54.9566 24.9942 54.9566C24.9942 54.9566 22.6863 57.7497 23.7727 62.7128C24.6275 66.6199 25.3361 74.1941 25.3361 74.1941C25.3361 74.1941 23.4418 65.1475 29.3893 58.9409C35.3368 52.7342 40.5591 50.669 40.4681 45.7583C40.3771 40.8476 41.4111 37.6133 41.4111 37.6133C41.4111 37.6133 45.9358 50.669 42.5746 55.0641C39.2135 59.4592 37.6226 59.768 38.9157 65.3157C40.2089 70.8634 37.2062 72.0434 37.2062 72.0434C37.2062 72.0434 39.5913 73.7944 41.0113 70.5628C42.4313 67.3313 43.7851 67.4223 45.2051 64.8387C46.6251 62.2551 48.2381 62.0318 48.2381 62.0318C48.2381 62.0318 42.922 70.1878 44.2152 73.4139C45.5084 76.6399 48.2381 75.8623 48.2381 79.8714C48.2381 83.8805 47.2951 85.9953 47.2951 85.9953C47.2951 85.9953 51.2242 84.0432 51.0946 81.5837C50.965 79.1242 50.5763 76.2759 52.5174 75.8871L54.4475 75.5011C54.4475 75.5011 52.1203 75.1123 53.6727 80.1527C55.225 85.193 56.2838 96.4399 47.2868 98.1218C38.2898 99.8038 35.6759 95.1467 35.4305 95.916C35.1851 96.6853 32.7146 98.2129 27.7515 98.4803C17.6653 99.0207 17.3593 92.7562 17.3593 92.7562Z" fill="#FFD705"/>
<path d="M29.2829 9.06991L21.7009 8.50506C21.7009 8.50506 21.4437 8.37644 21.5218 8.30296C21.5999 8.22949 21.7514 8.30298 21.6733 8.14684C21.5583 7.99749 21.4204 7.86731 21.2646 7.7611L14.7297 7.60951L14.6287 9.76336L16.6263 10.3512C16.6291 10.7904 16.6814 11.2279 16.7825 11.6554C16.8835 11.7105 21.136 12.8356 21.136 12.8356C21.136 12.8356 21.2371 12.1973 21.2876 12.3213C21.3381 12.4453 21.6228 13.2719 21.6228 13.2719L25.7192 14.5761L26.1784 14.296C26.3849 14.2208 26.5989 14.1685 26.8168 14.1399C26.8949 14.1399 27.276 14.6542 27.3036 14.7323C27.3311 14.8103 27.2301 15.1915 27.9465 15.2926L28.6629 15.4211L29.2278 14.296C29.2278 14.296 32.121 14.7047 32.2495 14.7047C32.6178 15.0562 32.9515 15.4422 33.2461 15.8574L33.7329 15.6553L40.4882 14.4659C40.5799 14.257 40.6826 14.0532 40.7959 13.8552C40.9387 13.5659 41.0348 13.2559 41.0806 12.9367C41.0806 12.8632 40.8235 12.6566 40.6673 12.4269C40.5112 12.1973 40.2357 11.9126 40.2862 11.7335C40.3367 11.5544 40.3872 11.2742 40.4653 11.2237C40.7879 11.18 41.1134 11.1616 41.4389 11.1686C41.4389 11.1686 41.7465 11.0676 41.719 10.9895C41.6914 10.9115 41.4113 10.6818 41.4113 10.6818L40.9521 10.4522L38.2655 10.195L38.1369 9.60723L32.4746 9.29952L32.6537 6.32828L32.323 6.25019L31.8638 6.07108L31.4505 5.56134L31.9924 1.02409L31.9373 0.105615L31.7076 0C31.6285 0.128479 31.5681 0.267684 31.5285 0.413323V1.02409C31.5285 1.15267 30.8121 5.58432 30.8121 5.58432L30.532 5.89197L28.8145 6.3053C28.8004 6.32975 28.7955 6.3584 28.8005 6.38614C28.8056 6.41387 28.8203 6.43894 28.842 6.45688C28.9155 6.53495 29.9947 7.20084 29.9947 7.20084L29.2829 9.06991Z" fill="#333333"/>
<path d="M30.2288 14.822L28.998 16.7967L27.6938 16.8472L26.4631 16.8977L26.2059 17.8162C26.2059 17.8162 26.284 18.0688 26.3345 18.1744C26.5278 18.5939 26.6815 19.0306 26.7937 19.4786C26.7908 19.7184 26.8077 19.958 26.8442 20.195L27.3035 20.4292L27.2805 20.9666L26.8213 23.8873L21.8799 49.6045L26.4722 50.399L27.0601 50.0408C27.1528 50.0659 27.2493 50.0737 27.3448 50.0637C27.4229 50.0408 28.0336 49.6045 28.0336 49.6045C28.0336 49.6045 28.1898 50.0638 28.548 50.0913C28.9062 50.1189 28.9843 49.9627 29.2644 49.7055C29.5653 49.5074 29.8835 49.3368 30.215 49.1958C30.4951 49.0167 30.4446 48.8376 30.8809 48.8605C31.3172 48.8835 31.4917 49.1682 31.6203 49.1177C32.0707 48.8837 32.4995 48.6102 32.9015 48.3003C33.1789 47.9761 33.5605 47.7584 33.9807 47.6849C34.4489 47.7101 34.9118 47.795 35.3585 47.9375C35.51 48.0155 36.7683 48.3003 36.9474 48.6814C37.1265 49.0626 37.177 49.3978 37.4066 49.2968C37.5727 49.2041 37.7132 49.0715 37.8154 48.9111L35.2253 31.5703L37.6087 31.0055C37.7587 31.0585 37.9122 31.1015 38.0679 31.1341C38.2293 30.8483 38.3425 30.538 38.4032 30.2156C38.4032 30.1145 38.169 30.0089 37.9164 29.6277C37.6998 29.196 37.5599 28.7298 37.5031 28.25C37.5031 28.172 37.8613 27.1754 37.8383 27.0468C37.8154 26.9183 37.4296 26.5095 37.4296 26.1284C37.4877 25.7671 37.4513 25.3969 37.324 25.0538C37.1449 24.7461 36.7362 23.9745 36.7362 23.9745C36.7362 23.9745 36.0198 24.1031 35.8636 23.8505C35.7075 23.5979 35.533 23.2352 35.533 23.2352C35.533 23.2352 34.5823 23.1571 34.5823 23.0561C34.5823 22.955 34.4813 22.7208 34.7385 22.7208C34.9957 22.7208 35.5559 22.7989 35.5559 22.6703C35.5559 22.5417 35.3539 21.7243 35.3539 21.7243L34.2241 21.4166L34.1736 21.0814L34.2793 20.8012L34.2241 19.5429C34.2241 19.5429 33.5858 19.6715 33.5858 19.2123C33.6342 18.6681 33.7201 18.128 33.843 17.5957L33.3837 17.2927L33.7144 15.6532L33.2276 15.8553L32.2311 14.7026C32.2311 14.7026 31.207 14.6016 31.1289 14.6016C31.0508 14.6016 30.2288 14.822 30.2288 14.822Z" fill="#333333"/>
<path d="M18.7802 50.9702L20.8284 49.7394C20.8284 49.7394 27.3863 50.8186 27.6664 50.8186C27.9465 50.8186 28.5849 50.5615 28.7686 50.5615C28.9962 50.6093 29.2137 50.6962 29.4115 50.8186L30.3575 51.0482L30.6147 51.1768C30.8548 50.651 31.1374 50.1457 31.4597 49.6659C31.6664 49.4868 33.5079 48.1275 33.9166 48.0999C34.3253 48.0724 35.8133 47.976 36.0199 48.178C36.2266 48.3801 36.5067 48.4076 36.8373 49.023C37.168 49.6384 37.4803 50.69 37.5583 50.713C37.8505 50.5658 38.1248 50.3855 38.3758 50.1757C38.633 49.9966 40.672 48.8715 40.672 48.8715C40.672 48.8715 40.5434 49.6889 40.5434 49.7899C40.5434 49.8909 40.1347 50.4283 40.3918 50.4283C40.649 50.4283 40.773 50.3502 40.773 50.4559C40.6535 50.7528 40.517 51.0425 40.3643 51.3238C40.3723 51.6722 40.4327 52.0174 40.5434 52.3479C40.9476 52.504 41.3417 52.685 41.7236 52.8897C41.6698 53.1712 41.5835 53.4456 41.4664 53.7072C41.3884 53.8082 37.9808 58.2995 37.9579 58.396C37.9349 58.4924 35.5469 61.7255 35.4964 61.8036C35.4459 61.8816 33.5263 64.0308 33.5263 64.0308C33.0578 64.0349 32.593 64.1124 32.1486 64.2604C31.7628 64.4671 31.5837 64.5452 31.5837 64.5452C31.5837 64.5452 13.9858 56.7382 13.4485 56.3984C12.9112 56.0585 9.35208 54.7313 9.31534 54.6532C9.2786 54.5752 9.3429 51.1723 9.41637 51.1447C9.80831 51.0965 10.2047 51.0965 10.5966 51.1447C10.6976 51.2228 13.0306 52.6556 13.7745 52.4765C14.5185 52.2974 15.0788 52.1182 15.0788 51.737C15.0461 51.3783 15.0369 51.0179 15.0512 50.6579C15.1063 50.4283 16.4289 49.6613 16.4289 49.6613C16.9009 49.6553 17.3725 49.6892 17.8388 49.7624C18.1878 49.868 18.7802 50.9702 18.7802 50.9702Z" fill="#333333"/>
<path d="M73.5536 50.8594C73.5536 50.8594 55.8822 54.3495 55.749 54.6113C55.6158 54.8731 53.0349 55.7732 52.9706 55.934C52.2335 56.5639 51.4574 57.1468 50.6469 57.6791C50.5504 57.7112 42.3072 59.167 42.2107 59.1348C42.1143 59.1027 40.0293 57.8719 40.0293 57.8719L38.9639 58.2623L37.4438 62.0418C37.4438 62.0418 39.7033 70.2575 40.0064 70.5605C40.3095 70.8636 43.4966 68.6227 43.7537 68.5813C44.1638 68.4592 44.567 68.315 44.9615 68.1496C44.9615 68.1496 46.7296 67.7179 47.2026 67.6903C48.2811 67.5849 49.3478 67.3821 50.3897 67.0842C50.95 66.827 79.0414 56.5723 78.9128 56.485C78.7843 56.3978 76.8004 52.3932 76.6167 52.3059C76.1349 52.1932 75.6335 52.1932 75.1517 52.3059C74.6324 52.3655 74.1064 52.3219 73.6041 52.1774C73.6041 52.1774 73.0438 51.833 73.6041 51.5758C74.1643 51.3186 73.5536 50.8594 73.5536 50.8594Z" fill="#333333"/>
<path d="M25.8614 57.7022C25.8614 57.7022 21.0578 60.5496 20.7593 61.2017C20.4608 61.8538 19.5607 90.4044 19.6571 90.905C19.6736 91.0352 19.7177 91.1604 19.7867 91.2721C19.8556 91.3838 19.9476 91.4795 20.0566 91.5526C20.0566 91.5526 26.0267 91.5526 26.5089 91.401C26.9911 91.2495 26.9681 91.6536 27.161 91.8603C27.3539 92.0669 28.5112 91.1117 28.6581 92.1633C28.7057 92.9593 28.9851 93.7239 29.4618 94.3631C29.921 94.9142 29.5077 94.4136 30.8119 95.4147C32.1162 96.4159 32.9106 96.9119 33.5673 96.5628C34.2241 96.2138 34.1184 93.913 36.1712 94.8131C38.224 95.7132 38.821 97.1093 38.821 95.7316C38.821 94.3539 37.6683 93.7293 39.7395 93.4354C41.8106 93.1415 42.8898 93.1874 42.8898 92.6363C42.8898 92.0853 42.6373 91.6858 42.8898 91.0842C43.1424 90.4826 42.7383 91.5847 42.4306 88.9854C42.1229 86.3862 38.4582 62.4003 38.1919 62.1523C37.9255 61.9043 36.8417 61.6517 36.4422 61.8997C35.9142 62.1218 35.3602 62.2761 34.7935 62.359C34.7935 62.359 33.2413 59.2086 32.2402 58.3085C31.239 57.4084 30.991 57.2109 29.9899 57.2109C28.9888 57.2109 25.8614 57.7022 25.8614 57.7022Z" fill="#333333"/>
<path d="M18.8073 66.203C18.8073 66.203 17.2092 66.1525 17.1587 67.0526C17.1081 67.9527 17.2597 69.5003 17.5582 69.7024C17.8567 69.9045 19.5099 70.1019 19.5099 70.2535C19.5099 70.405 18.5088 71.172 18.5088 71.5531C18.4692 72.2375 18.503 72.9242 18.6098 73.6013C18.7568 74.1019 19.5283 75.1535 19.2574 75.5025C18.9864 75.8515 18.2103 76.2005 18.2103 76.421C18.2103 76.6414 18.4583 76.77 18.2103 76.8206C17.9623 76.8711 15.1564 77.6701 15.1564 77.4726C15.1564 77.2752 15.06 75.0709 14.9084 75.0204C14.7569 74.9699 12.8097 74.6208 12.6122 73.9182C12.4148 73.2155 11.6938 70.2719 11.1105 70.5199C10.5273 70.7678 1.25991 74.5198 1.46657 75.8195C1.67322 77.1191 2.56414 83.0202 2.21513 83.2223C1.86611 83.4243 0.378182 83.5208 0.378182 83.9203C0.378182 84.3199 -0.269341 85.321 0.130194 85.321C0.529729 85.321 24.5799 78.5702 24.5799 78.2717C24.5799 77.9732 21.5306 66.1204 21.131 65.8219C20.7315 65.5234 18.8073 66.203 18.8073 66.203Z" fill="#333333"/>
</svg>
