<svg width="94" height="76" viewBox="0 0 94 76" fill="none" xmlns="http://www.w3.org/2000/svg">
<path d="M12.8969 46.0549C12.8969 46.0549 6.42003 40.4576 8.36392 34.9651C10.3078 29.4726 13.5449 26.5581 13.5449 26.5581C14.0261 28.5079 14.3506 30.493 14.5154 32.4945C14.7332 35.5276 14.5154 36.4623 14.5154 36.4623C14.5154 36.4623 14.7911 32.6021 15.0917 25.3284C15.3922 18.0547 19.28 14.484 19.28 14.484C19.28 14.484 17.3499 16.8167 18.2598 20.9609C18.9739 24.2255 19.5557 30.5507 19.5557 30.5507C19.5557 30.5507 17.9758 22.9957 22.9417 17.812C27.9075 12.6284 32.2696 10.905 32.1951 6.8022C32.1207 2.69936 32.9809 0 32.9809 0C32.9809 0 36.7612 10.9051 33.9543 14.575C31.1473 18.2449 29.8183 18.5041 30.9212 23.1446C32.0242 27.7851 29.4819 28.764 29.4819 28.764C29.4819 28.764 31.4727 30.2281 32.6611 27.5287C33.8495 24.8293 34.9745 24.9065 36.1628 22.7476C37.3512 20.5886 38.7051 20.4039 38.7051 20.4039C38.7051 20.4039 34.2686 27.2144 35.3467 29.9082C36.4248 32.6021 38.7051 31.9542 38.7051 35.3015C38.7051 38.6489 37.9082 40.3997 37.9082 40.3997C37.9082 40.3997 41.1894 38.7674 41.0818 36.7104C40.9743 34.6535 40.6489 32.2795 42.2675 31.9541L43.8888 31.6316C43.8888 31.6316 41.9587 31.3062 43.2408 35.5166C44.5229 39.727 45.4218 49.1182 37.9082 50.5217C30.3946 51.9252 28.2108 48.0402 28.0068 48.6881C27.8028 49.3361 25.7376 50.6182 21.5934 50.8305C13.1533 51.2854 12.8969 46.0549 12.8969 46.0549Z" fill="#FF9B05"/>
<path d="M24.5385 64.2425C24.5385 64.2425 16.7822 57.5423 19.1094 50.9662C21.4365 44.3901 25.3133 40.8994 25.3133 40.8994C25.8896 43.2341 26.2787 45.611 26.4768 48.0076C26.736 51.6251 26.4768 52.7585 26.4768 52.7585C26.4768 52.7585 26.8132 48.1427 27.1662 39.427C27.5191 30.7112 32.1734 26.4429 32.1734 26.4429C32.1734 26.4429 29.8655 29.2361 30.9519 34.1992C31.8067 38.1062 32.5153 45.6805 32.5153 45.6805C32.5153 45.6805 30.621 36.6338 36.5685 30.4272C42.516 24.2205 47.7383 22.1553 47.6473 17.2446C47.5563 12.3339 48.5903 9.09961 48.5903 9.09961C48.5903 9.09961 53.115 22.1553 49.7538 26.5504C46.3927 30.9455 44.8017 31.2544 46.0949 36.802C47.3881 42.3497 44.3854 43.5298 44.3854 43.5298C44.3854 43.5298 46.7704 45.2807 48.1905 42.0491C49.6105 38.8176 50.9643 38.9086 52.3843 36.325C53.8043 33.7414 55.4173 33.5181 55.4173 33.5181C55.4173 33.5181 50.1012 41.6742 51.3944 44.9002C52.6876 48.1262 55.4173 47.3486 55.4173 51.3577C55.4173 55.3668 54.4743 57.4816 54.4743 57.4816C54.4743 57.4816 58.4034 55.5295 58.2738 53.07C58.1442 50.6105 57.7555 47.7622 59.6966 47.3735L61.6267 46.9874C61.6267 46.9874 59.2995 46.5987 60.8519 51.639C62.4042 56.6793 63.463 67.9262 54.466 69.6082C45.469 71.2901 42.8551 66.6331 42.6097 67.4023C42.3643 68.1716 39.8938 69.6992 34.9307 69.9666C24.8445 70.5071 24.5385 64.2425 24.5385 64.2425Z" fill="#FFD705"/>
<path d="M94.0002 43.3941L93.1221 40.6378L92.8023 40.449L90.0723 40.1904L64.1337 37.7276L56.9319 37.0441L56.9584 37.0154C57.5859 36.2499 58.4212 34.6552 59.0813 33.2945L76.9502 31.2011C76.9502 31.2011 73.6233 29.6988 72.7188 29.4853C71.8142 29.2719 63.437 28.4119 63.437 28.4119C63.437 28.4119 62.9582 27.6095 62.4529 27.7962C61.9742 28.0232 61.5083 28.2767 61.0574 28.5556C61.0574 28.5556 60.218 26.7968 58.8877 26.5197C57.5574 26.2426 55.8318 27.4083 55.8318 27.4083C55.9705 27.2232 56.0842 27.0203 56.17 26.805C56.4104 26.1626 55.7177 25.278 55.7177 25.278L58.1849 12.0424L58.7247 11.7181C58.7392 11.5415 58.7017 11.3644 58.6168 11.2091C58.5234 11.0959 58.3909 11.0225 58.246 11.0039L56.1435 12.3974L55.1595 13.5221C54.9374 13.7459 52.0302 20.4447 49.9624 25.2472C49.8544 25.2677 49.7587 25.2883 49.6527 25.3129C49.2963 25.3984 48.949 25.5187 48.6158 25.6721C48.6158 25.6721 48.1635 24.9106 47.6318 24.9907C47.1804 25.1149 46.7439 25.2883 46.3299 25.5079C46.7374 25.0974 47.0206 24.8039 47.0206 24.8039C47.0206 24.8039 40.8211 23.1148 40.21 23.0348C39.5988 22.9547 34.4119 23.0348 34.4119 23.0348L39.3808 30.0128C39.2137 30.1195 39.0467 30.218 38.8796 30.3247C37.4101 31.1696 35.8947 31.9309 34.3406 32.6049L18.3622 27.2257L4.16032 22.4478L3.10705 22.0928C3.10705 22.0928 0.152996 23.084 0.0511322 23.5663C-0.0507317 24.0487 0.0511322 24.2108 0.0511322 24.2108L16.8057 32.4674C16.7731 32.5125 14.7297 35.4125 14.5484 35.6834C14.4123 35.9408 14.3161 36.2177 14.2632 36.5044L13.8231 36.5228C13.8231 36.5228 11.3784 38.1483 11.1217 38.4972C10.865 38.8461 10.8181 39.8928 10.8181 39.8928L11.1237 39.823L10.92 40.4633C11.3413 40.3311 11.7549 40.1748 12.1587 39.9954C12.8789 39.479 13.5674 38.919 14.2204 38.3186C14.4268 38.071 14.6077 37.8028 14.7603 37.5182V37.5182L15.1086 37.2124C15.1086 37.2124 16.2699 36.6952 16.6774 36.5023C17.0033 36.3504 19.0039 34.6326 19.8005 33.941L23.6713 35.8538L22.7423 37.5285L22.5956 38.1565C21.9768 38.6622 21.3838 39.1992 20.8191 39.7656C20.3546 40.3382 19.5968 41.8733 19.5968 41.8733C19.538 41.9731 19.5156 42.0904 19.5335 42.205C19.5513 42.3197 19.6083 42.4245 19.6946 42.5013C20.0002 42.8133 20.4076 42.5999 20.866 42.37C21.3244 42.1401 22.3715 41.5737 22.8014 41.2904C22.9094 41.2207 23.2537 40.921 23.708 40.5126C23.1416 43.1232 22.6608 45.9144 22.6608 45.9144L17.7103 53.2577C17.7103 53.2577 14.6543 57.4117 11.847 61.3029L11.7716 61.4055L11.6575 61.5636L11.5618 61.6949L11.4477 61.855L11.3397 62.0028L11.2419 62.1382C11.2052 62.1895 11.1686 62.2429 11.1298 62.2942L11.0259 62.4399L10.9404 62.561L10.8141 62.7355L10.7224 62.8627L10.6205 63.0043L10.5085 63.1603C10.4759 63.2055 10.4453 63.2506 10.4127 63.2937C10.3801 63.3368 10.3618 63.3635 10.3373 63.4004L10.1214 63.7021L10.0297 63.8294L9.92581 63.9751L9.84025 64.0941L9.74449 64.2296L9.64671 64.3671L9.56929 64.4758C9.53262 64.5251 9.49798 64.5764 9.46335 64.6257L9.38594 64.7324L9.28204 64.8802L9.20869 64.9848L9.1109 65.1223C9.08442 65.1572 9.05997 65.1942 9.03552 65.2291L8.9357 65.3686L8.87254 65.4589L8.76049 65.619L8.71363 65.6867L8.56287 65.892C8.51194 65.9659 8.46101 66.0398 8.41008 66.1095L8.27766 66.3004L8.23691 66.3579L8.14115 66.4954L8.10652 66.5487L8.01892 66.6739L7.97614 66.7396L7.90076 66.8484L7.86205 66.9079L7.79279 67.0105L7.75408 67.0659C7.73371 67.0988 7.7113 67.1296 7.69092 67.1603L7.65628 67.2116L7.5972 67.2999C7.5889 67.3157 7.57936 67.3308 7.56868 67.345L7.5096 67.4353L7.49126 67.4661C7.46681 67.5031 7.44237 67.54 7.422 67.5749C6.8586 68.5094 6.3858 69.4963 6.01017 70.5221C5.95313 70.6699 5.90015 70.8156 5.84922 70.9572C5.79828 71.0988 5.75144 71.2363 5.70662 71.3677C5.63939 71.5729 5.57826 71.7556 5.52326 71.9321C5.48659 72.047 5.45195 72.1578 5.42139 72.2625C5.39083 72.3672 5.36231 72.4677 5.33786 72.5498C5.27733 72.7468 5.22701 72.9468 5.1871 73.1491V73.1491L2.33491 75.7843C2.33491 75.7843 2.11896 75.93 2.33491 75.9793C2.55086 76.0285 5.39083 73.4672 5.39083 73.4672C5.42543 73.4819 5.4617 73.4923 5.49881 73.498C5.60882 73.5185 6.33206 73.4036 7.39348 73.1265L7.66648 73.0547C7.85391 73.0034 8.04948 72.948 8.25118 72.8884C8.45287 72.8289 8.65862 72.7653 8.88069 72.6955C9.4226 72.5231 10.0032 72.3199 10.6022 72.0798C10.9628 71.9403 11.3295 71.7884 11.6982 71.6242C11.9448 71.5154 12.1933 71.4005 12.4398 71.2794C12.8819 71.0742 13.322 70.834 13.7559 70.5857L14.0615 70.4092L14.2774 70.2799L14.4588 70.167L14.5301 70.1198L14.6645 70.0316L14.7521 69.9741L14.8866 69.8838L14.9844 69.8161L15.1209 69.7237L15.2248 69.6498L15.3653 69.5513L15.4815 69.4692L15.6241 69.3687L15.7443 69.2804L15.895 69.1716L16.0173 69.0813L16.1762 68.9664L16.3045 68.872L16.4675 68.7489C16.5123 68.7181 16.5551 68.6852 16.5979 68.6524L16.769 68.5251L16.9055 68.4205L17.0787 68.2912L17.2172 68.1845L17.4026 68.0449L17.5391 67.9402L17.7428 67.7904L17.8794 67.6857L18.0831 67.5277L18.2135 67.4271L18.4314 67.2547L18.5578 67.1583L18.79 66.9756L18.8939 66.8935C24.256 62.6821 31.5128 56.486 31.5128 56.486C31.5128 56.486 39.8881 49.5819 43.0051 47.152V48.3834C43.0051 48.3834 44.8142 48.7589 46.2505 48.0345C46.3675 47.9728 46.4752 47.8948 46.5703 47.8026C47.1978 47.3367 48.6076 46.2715 49.2962 45.5162C49.8626 44.9005 50.4045 43.7923 50.7345 43.0288C51.3783 42.8543 51.7776 42.7456 51.8408 42.7333C52.3012 42.6327 52.2706 42.4685 52.2706 42.4685L55.9377 42.5711L54.7683 45.0483L54.6604 45.6845C54.076 46.2301 53.5191 46.8048 52.9918 47.4065C52.564 48.0078 51.8978 49.5902 51.8978 49.5902C51.8466 49.6929 51.8323 49.8103 51.8571 49.9225C51.882 50.0347 51.9446 50.1348 52.0343 50.2059C52.3603 50.4973 52.7514 50.2572 53.1956 50.0006C53.6397 49.7441 54.6481 49.1058 55.0576 48.798C55.4671 48.4901 59.4337 44.3177 59.4337 44.3177C59.618 44.1206 59.7682 43.8937 59.8778 43.6465C59.965 43.3406 60.0331 43.0294 60.0816 42.7148L67.1224 42.92C66.7435 43.823 65.8715 45.8959 65.7778 46.136C65.6998 46.4164 65.6641 46.707 65.6718 46.998L65.2481 47.113C65.2481 47.113 63.1986 49.2289 63.0295 49.625C62.8604 50.0211 63.0295 51.0617 63.0295 51.0617L63.3127 50.9262L63.2516 51.5953C63.6347 51.3754 64.0054 51.1343 64.3619 50.8729C64.9542 50.212 65.5073 49.5164 66.0182 48.7897C66.1668 48.503 66.2863 48.2018 66.3747 47.8908V47.8908L66.6498 47.5173C66.6498 47.5173 67.6684 46.76 68.033 46.4911C68.359 46.2407 70.3922 43.5131 70.7447 43.037L79.6863 43.2874L94.0002 43.3941ZM59.7128 28.5515C59.8164 28.7068 59.9051 28.8718 59.9777 29.0441C59.7844 29.0765 59.5877 29.082 59.393 29.0605C59.0339 28.6483 58.6074 28.3012 58.1319 28.0343L58.1971 27.4946C58.8016 27.6744 59.3328 28.0449 59.7128 28.5515V28.5515ZM57.3659 27.3981L57.2233 27.8086H57.1316C56.6236 27.8591 56.1203 27.949 55.626 28.0774V28.0774C56.1061 27.6478 56.7237 27.4066 57.3659 27.3981V27.3981ZM23.0174 46.2797C23.0174 46.2797 24.6614 44.5024 26.9371 44.605L24.4781 47.858C24.3701 47.858 24.2744 47.858 24.1562 47.858C23.3413 47.8888 22.3104 48.1925 21.5485 48.4614L23.0174 46.2797ZM18.242 53.8857L18.7207 52.6543L21.1777 49.0093C21.9682 48.7625 22.7809 48.5947 23.6041 48.5086C23.8533 48.4868 24.1041 48.4937 24.3518 48.5291L20.8599 53.8529C19.9873 53.8132 19.1133 53.8242 18.242 53.8857V53.8857ZM24.8652 55.6548C24.8652 55.6548 22.8279 54.4234 21.5526 53.9965L24.9141 48.644C25.9998 48.9569 26.9838 49.5539 27.7663 50.3742C28.351 51.033 28.844 52.3218 29.062 52.956L24.8652 55.6548ZM29.5631 51.8519C29.3087 51.1181 28.8993 50.4487 28.3632 49.8898C27.5665 49.0265 26.5625 48.3847 25.4478 48.0263L28.1207 44.802C29.991 45.3254 30.8813 46.6491 31.3458 47.4926C31.8734 48.4614 31.9936 49.9863 31.9936 49.9863L29.5631 51.8519Z" fill="#333333"/>
</svg>
