<svg width="148" height="70" viewBox="0 0 148 70" fill="none" xmlns="http://www.w3.org/2000/svg">
<path d="M43.8969 46.0549C43.8969 46.0549 37.42 40.4576 39.3639 34.9651C41.3078 29.4726 44.5449 26.5581 44.5449 26.5581C45.0261 28.5079 45.3506 30.493 45.5154 32.4945C45.7332 35.5276 45.5154 36.4623 45.5154 36.4623C45.5154 36.4623 45.7911 32.6021 46.0917 25.3284C46.3922 18.0547 50.28 14.484 50.28 14.484C50.28 14.484 48.3499 16.8167 49.2598 20.9609C49.9739 24.2255 50.5557 30.5507 50.5557 30.5507C50.5557 30.5507 48.9758 22.9957 53.9417 17.812C58.9075 12.6284 63.2696 10.905 63.1951 6.8022C63.1207 2.69936 63.9809 0 63.9809 0C63.9809 0 67.7612 10.9051 64.9543 14.575C62.1473 18.2449 60.8183 18.5041 61.9212 23.1446C63.0242 27.7851 60.4819 28.764 60.4819 28.764C60.4819 28.764 62.4727 30.2281 63.6611 27.5287C64.8495 24.8293 65.9745 24.9065 67.1628 22.7476C68.3512 20.5886 69.7051 20.4039 69.7051 20.4039C69.7051 20.4039 65.2686 27.2144 66.3467 29.9082C67.4248 32.6021 69.7051 31.9542 69.7051 35.3015C69.7051 38.6489 68.9082 40.3997 68.9082 40.3997C68.9082 40.3997 72.1894 38.7674 72.0818 36.7104C71.9743 34.6535 71.6489 32.2795 73.2675 31.9541L74.8888 31.6316C74.8888 31.6316 72.9587 31.3062 74.2408 35.5166C75.5229 39.727 76.4218 49.1182 68.9082 50.5217C61.3946 51.9252 59.2108 48.0402 59.0068 48.6881C58.8028 49.3361 56.7376 50.6182 52.5934 50.8305C44.1533 51.2854 43.8969 46.0549 43.8969 46.0549Z" fill="#FF9B05"/>
<path d="M55.5385 64.2425C55.5385 64.2425 47.7822 57.5423 50.1094 50.9662C52.4365 44.3901 56.3133 40.8994 56.3133 40.8994C56.8896 43.2341 57.2787 45.611 57.4768 48.0076C57.736 51.6251 57.4768 52.7585 57.4768 52.7585C57.4768 52.7585 57.8132 48.1427 58.1662 39.427C58.5191 30.7112 63.1734 26.4429 63.1734 26.4429C63.1734 26.4429 60.8655 29.2361 61.9519 34.1992C62.8067 38.1062 63.5153 45.6805 63.5153 45.6805C63.5153 45.6805 61.621 36.6338 67.5685 30.4272C73.516 24.2205 78.7383 22.1553 78.6473 17.2446C78.5563 12.3339 79.5903 9.09961 79.5903 9.09961C79.5903 9.09961 84.115 22.1553 80.7538 26.5504C77.3927 30.9455 75.8017 31.2544 77.0949 36.802C78.3881 42.3497 75.3854 43.5298 75.3854 43.5298C75.3854 43.5298 77.7704 45.2807 79.1905 42.0491C80.6105 38.8176 81.9643 38.9086 83.3843 36.325C84.8043 33.7414 86.4173 33.5181 86.4173 33.5181C86.4173 33.5181 81.1012 41.6742 82.3944 44.9002C83.6876 48.1262 86.4173 47.3486 86.4173 51.3577C86.4173 55.3668 85.4743 57.4816 85.4743 57.4816C85.4743 57.4816 89.4034 55.5295 89.2738 53.07C89.1442 50.6105 88.7555 47.7622 90.6966 47.3735L92.6267 46.9874C92.6267 46.9874 90.2995 46.5987 91.8519 51.639C93.4042 56.6793 94.463 67.9262 85.466 69.6082C76.469 71.2901 73.8551 66.6331 73.6097 67.4023C73.3643 68.1716 70.8938 69.6992 65.9307 69.9666C55.8445 70.5071 55.5385 64.2425 55.5385 64.2425Z" fill="#FFD705"/>
<path d="M147.287 44.591C147.213 44.4409 118.289 39.8936 117.123 39.7045C115.957 39.5154 95.8657 36.7737 95.8657 36.7737C95.7364 36.6483 95.5735 36.5633 95.3967 36.529C95.2871 36.5136 95.1756 36.5207 95.0689 36.5497C94.9621 36.5787 94.8624 36.629 94.7757 36.6977L92.9905 36.5846L92.9479 35.7949C93.1722 35.8616 93.3186 35.908 93.3186 35.908L93.3557 35.4946C93.3557 35.4946 90.9458 34.6863 89.5035 34.6307C88.0613 34.5751 86.3836 34.6678 86.3836 34.6678C86.3836 34.6678 86.0629 34.7623 86.0629 34.8532V35.3407L86.4337 35.3278V35.9228L84.2907 35.8857C84.2503 35.81 84.191 35.7459 84.1186 35.6998C84.0462 35.6537 83.9631 35.6271 83.8773 35.6225C83.7089 35.5987 83.5379 35.5987 83.3694 35.6225C83.3694 35.6225 68.7247 34.5325 61.7008 34.551C54.6768 34.5696 39.4852 35.68 39.3722 35.717C39.3273 35.7344 39.2877 35.7632 39.2575 35.8006C39.2272 35.838 39.2074 35.8827 39.1999 35.9302C39.1924 35.9777 39.1975 36.0263 39.2147 36.0712C39.2319 36.1161 39.2606 36.1557 39.298 36.186C39.5223 36.3714 46.9281 35.8857 48.7133 35.717C50.4984 35.5483 66.211 35.0219 70.647 35.3222C74.9107 35.6114 82.5946 36.3826 83.2156 36.4456C83.2953 36.5216 83.6957 36.8923 83.9144 36.8163C83.9868 36.7941 84.054 36.7578 84.1122 36.7094C84.1705 36.661 84.2185 36.6016 84.2537 36.5346L86.3021 36.6847L86.2835 38.5385C86.5171 38.4771 86.7562 38.4392 86.9973 38.4254C87.0473 38.4254 87.1604 38.4384 87.3105 38.4588C87.2864 38.9018 87.2716 39.2466 87.2716 39.2466L89.891 39.3634V39.0371L90.1172 39.178C90.1172 39.178 92.147 38.9704 92.2786 38.9927C92.4103 39.0149 92.5233 39.2188 92.7476 39.2188C92.9719 39.2188 92.933 39.3504 92.9738 39.2188C93.0146 39.0872 92.8793 37.5263 92.8793 37.5263L94.7979 37.4522C94.7979 37.4522 95.0222 37.8081 95.2669 37.8229C95.4732 37.8099 95.6732 37.7463 95.849 37.6375C95.849 37.6375 111.769 39.4413 113.31 39.7045C114.85 39.9677 127.387 41.8104 127.387 41.8104C127.387 41.8104 145.016 44.743 145.804 44.8543C146.592 44.9655 147.363 44.7412 147.287 44.591Z" fill="#333333"/>
<path d="M89.8892 39.9706H87.3402L87.2698 39.2681C87.2698 39.2681 86.4541 39.1476 85.2306 39.0159C84.7727 38.9678 84.2574 38.9177 83.7068 38.8713L82.8819 38.8083C81.7567 38.7323 80.5425 38.686 79.4005 38.7138H79.3801C78.9667 38.7249 78.5626 38.7453 78.177 38.7768H78.1122C77.6282 38.8148 77.1471 38.8835 76.6718 38.9826C76.0638 39.1142 75.5039 39.2514 74.9793 39.3941L74.6679 39.4812C74.1655 39.624 73.7002 39.7686 73.2757 39.9187C72.7195 40.1129 72.1759 40.3413 71.6481 40.6028C71.0723 40.8748 70.5425 41.2351 70.0779 41.6705C69.4198 42.3305 68.8823 43.541 68.6098 44.2343C68.4874 44.5494 68.4244 44.7571 68.4244 44.7571L28.1161 45.2724H28.0364L19.0994 34.4167L27.7453 35.0137L27.851 33.7271L27.8621 33.6104L27.4821 33.5881L18.8232 33.0876C18.8297 33.0755 18.8341 33.0623 18.8361 33.0487C18.8602 32.8855 18.9307 32.5111 18.9307 32.5111L16.873 31.3358L16.3169 31.0151H15.4771C15.6847 28.1232 16.0647 22.9123 16.2186 20.9084C16.2464 20.5376 16.265 20.2818 16.2724 20.1668V20.0927L14.7059 20L14.6522 20.8583L14.0108 31.0244H12.9541L12.7891 30.2124L11.6899 30.1438L10.8797 31.8919L1.13822 31.1968L0.140888 31.1245L0 32.4573L0.659952 32.5037L0.952839 32.5259L10.8464 33.2303C11.2171 33.7642 11.8159 34.5688 12.2516 34.9117C12.4861 35.0911 12.7485 35.2307 13.0283 35.3251L12.2274 46.2753L13.6771 46.368L14.4316 36.2297L22.564 47.2949L21.5111 45.8971C21.5111 45.8971 21.4184 46.8796 21.5352 47.2763C21.652 47.673 21.8151 48.1179 21.8151 48.1179L21.8763 48.079C22.0617 48.2866 22.6382 48.8687 23.7801 49.0763C25.1816 49.334 30.2331 49.334 30.2331 49.334L39.4204 49.4285C39.4204 49.4285 61.888 60.7198 64.6482 61.2352C67.4085 61.7505 91.044 61.8191 91.044 61.8191C91.044 61.8191 97.9901 61.8562 105.472 61.8191L102.691 61.8451C102.691 61.8451 102.415 62.9017 103.488 62.9833C104.562 63.0648 106.51 62.9833 106.51 62.9833C106.51 62.9833 107.324 62.8702 107.485 62.4791C107.579 62.2675 107.628 62.0393 107.632 61.808C110.392 61.7913 113.141 61.7635 115.562 61.7209V61.7487L116.578 61.7023C120.154 61.6282 122.845 61.517 123.492 61.3446C125.798 60.7328 126.618 59.7948 127.091 58.5491H127.391L128.219 58.2469V58.2562H134.068V58.5658H134.767V58.2562H139.659V58.4416H140.178V58.2469L141.162 58.0189L142.34 58.0504L143.346 57.7909L142.306 57.5796L141.161 57.6444L140.178 57.3571V57.2385H139.659V57.3515H134.767V57.1087H134.068V57.3515H128.212V57.3831C127.971 57.221 127.711 57.0896 127.437 56.9919C127.472 56.1855 127.241 55.3662 126.596 54.4541L126.977 54.4282C126.977 54.4282 127.189 54.3299 127.189 54.1668C127.189 54.0036 126.977 53.9573 126.977 53.9573L126.214 53.9721V53.9851C125.005 52.5837 122.751 50.8541 122.751 50.8541C122.751 50.8541 121.412 49.2561 120.341 48.1068C120.219 47.9752 120.102 47.851 119.989 47.7361L119.967 47.712C119.922 47.6638 119.876 47.6193 119.833 47.5748L119.802 47.5414L119.668 47.4098L119.655 47.3968L119.522 47.2708L119.499 47.2504L119.407 47.1651L119.373 47.1373L119.301 47.078L119.273 47.0557C119.244 47.0335 119.216 47.0149 119.192 47.0001C119.166 46.985 119.14 46.9714 119.114 46.9593L119.084 46.9464L119.017 46.9186L118.975 46.9019L118.902 46.8778L118.852 46.8611L118.769 46.8351L118.715 46.8184L118.621 46.7925L118.565 46.7777L118.445 46.748L118.402 46.7369L118.244 46.6998L118.496 46.7461L118.936 45.9323L118.626 45.7229L118.141 46.6776L118.042 46.6553L117.985 46.6442L117.848 46.6145L117.783 46.6015L117.644 46.5756L117.583 46.5626L117.431 46.5348L117.379 46.5256L117.193 46.4922H117.169C116.012 46.2901 114.815 46.1381 114.815 46.1381C114.815 46.1344 114.815 46.1307 114.815 46.127V46.0992C114.814 46.0918 114.814 46.0843 114.815 46.0769C114.814 46.0603 114.814 46.0436 114.815 46.0269C114.815 46.0158 114.815 46.0083 114.815 45.9972C114.815 45.9861 114.815 45.9527 114.806 45.9286C114.796 45.9045 114.806 45.9064 114.806 45.8953C114.806 45.8842 114.794 45.8397 114.789 45.81C114.79 45.797 114.79 45.784 114.789 45.7711C114.789 45.7395 114.774 45.708 114.765 45.6747C114.756 45.6413 114.765 45.645 114.756 45.6302L114.722 45.5227C114.722 45.5078 114.713 45.493 114.707 45.4763C114.702 45.4596 114.678 45.4022 114.663 45.3632L114.642 45.3132C114.626 45.2736 114.608 45.2347 114.587 45.1964C114.578 45.1797 114.57 45.1612 114.561 45.1445C114.552 45.1278 114.516 45.0666 114.492 45.0296C114.468 44.9925 114.472 44.9925 114.459 44.974C114.446 44.9554 114.403 44.898 114.376 44.8609C114.348 44.8238 114.35 44.8238 114.335 44.8071C114.32 44.7904 114.27 44.7348 114.235 44.6977L114.185 44.644C114.149 44.6088 114.109 44.5772 114.068 44.5439L114.008 44.492C113.964 44.4586 113.914 44.4271 113.866 44.3974L113.803 44.3529C113.749 44.3233 113.69 44.2936 113.63 44.2658L113.565 44.2325C113.483 44.1974 113.399 44.1671 113.313 44.1416H113.293C113.028 44.0601 112.479 43.9062 111.732 43.706L111.523 43.6485C110.813 43.4631 109.947 43.2277 108.99 42.9793L108.701 42.9051C108.039 42.7327 107.339 42.5529 106.619 42.3713L106.238 42.2749L104.94 41.9523L104.293 41.7929L103.648 41.6353L103.008 41.4814C100.569 40.8975 98.3182 40.397 97.0577 40.2135C94.429 39.8279 91.7058 39.5591 90.5101 39.4497L90.3674 39.4368L89.8817 39.3941L89.8892 39.9706ZM125.889 54.5486C126.163 54.9232 126.381 55.3353 126.536 55.7721H122.387L120.276 51.5474L122.756 51.5066C123.652 52.2426 125.187 53.5624 125.889 54.5486V54.5486ZM119.874 48.4423C120.893 49.5546 122.056 50.9486 122.056 50.9486L122.339 51.1711L120.081 51.2712L118.504 48.5258L119.874 48.4423ZM115.093 48.6073H117.709C118.066 48.6073 118.265 48.9966 118.265 48.9966C118.265 48.9966 119.874 51.8236 120.068 52.4261C120.263 53.0286 119.499 53.1565 119.499 53.1565C119.499 53.1565 115.762 53.2047 115.236 53.1565C114.709 53.1083 114.763 52.7672 114.763 52.7672C114.763 52.7672 114.748 49.1913 114.748 48.9317C114.748 48.6722 115.093 48.6073 115.093 48.6073V48.6073Z" fill="#333333"/>
</svg>
