<svg width="121" height="79" viewBox="0 0 121 79" fill="none" xmlns="http://www.w3.org/2000/svg">
<path d="M49.0536 46.0549C49.0536 46.0549 42.5768 40.4576 44.5207 34.9651C46.4645 29.4726 49.7016 26.5581 49.7016 26.5581C50.1828 28.5079 50.5074 30.493 50.6722 32.4945C50.89 35.5276 50.6722 36.4623 50.6722 36.4623C50.6722 36.4623 50.9479 32.6021 51.2484 25.3284C51.549 18.0547 55.4367 14.484 55.4367 14.484C55.4367 14.484 53.5066 16.8167 54.4165 20.9609C55.1307 24.2255 55.7125 30.5507 55.7125 30.5507C55.7125 30.5507 54.1325 22.9957 59.0984 17.812C64.0643 12.6284 68.4263 10.905 68.3519 6.8022C68.2774 2.69936 69.1377 0 69.1377 0C69.1377 0 72.9179 10.9051 70.111 14.575C67.3041 18.2449 65.9751 18.5041 67.078 23.1446C68.1809 27.7851 65.6387 28.764 65.6387 28.764C65.6387 28.764 67.6294 30.2281 68.8178 27.5287C70.0062 24.8293 71.1312 24.9065 72.3196 22.7476C73.508 20.5886 74.8618 20.4039 74.8618 20.4039C74.8618 20.4039 70.4253 27.2144 71.5034 29.9082C72.5815 32.6021 74.8618 31.9542 74.8618 35.3015C74.8618 38.6489 74.0649 40.3997 74.0649 40.3997C74.0649 40.3997 77.3461 38.7674 77.2386 36.7104C77.131 34.6535 76.8057 32.2795 78.4242 31.9541L80.0455 31.6316C80.0455 31.6316 78.1154 31.3062 79.3975 35.5166C80.6797 39.727 81.5785 49.1182 74.0649 50.5217C66.5513 51.9252 64.3676 48.0402 64.1635 48.6881C63.9595 49.3361 61.8943 50.6182 57.7501 50.8305C49.3101 51.2854 49.0536 46.0549 49.0536 46.0549Z" fill="#FF9B05"/>
<path d="M60.6951 64.2425C60.6951 64.2425 52.9389 57.5423 55.266 50.9662C57.5931 44.3901 61.4699 40.8994 61.4699 40.8994C62.0463 43.2341 62.4353 45.611 62.6335 48.0076C62.8926 51.6251 62.6335 52.7585 62.6335 52.7585C62.6335 52.7585 62.9699 48.1427 63.3228 39.427C63.6757 30.7112 68.33 26.4429 68.33 26.4429C68.33 26.4429 66.0222 29.2361 67.1085 34.1992C67.9633 38.1062 68.6719 45.6805 68.6719 45.6805C68.6719 45.6805 66.7777 36.6338 72.7251 30.4272C78.6726 24.2205 83.8949 22.1553 83.8039 17.2446C83.7129 12.3339 84.7469 9.09961 84.7469 9.09961C84.7469 9.09961 89.2716 22.1553 85.9104 26.5504C82.5493 30.9455 80.9584 31.2544 82.2515 36.802C83.5447 42.3497 80.542 43.5298 80.542 43.5298C80.542 43.5298 82.9271 45.2807 84.3471 42.0491C85.7671 38.8176 87.1209 38.9086 88.5409 36.325C89.9609 33.7414 91.5739 33.5181 91.5739 33.5181C91.5739 33.5181 86.2579 41.6742 87.551 44.9002C88.8442 48.1262 91.5739 47.3486 91.5739 51.3577C91.5739 55.3668 90.6309 57.4816 90.6309 57.4816C90.6309 57.4816 94.56 55.5295 94.4305 53.07C94.3009 50.6105 93.9121 47.7622 95.8532 47.3735L97.7833 46.9874C97.7833 46.9874 95.4562 46.5987 97.0085 51.639C98.5609 56.6793 99.6197 67.9262 90.6226 69.6082C81.6256 71.2901 79.0117 66.6331 78.7663 67.4023C78.5209 68.1716 76.0504 69.6992 71.0873 69.9666C61.0012 70.5071 60.6951 64.2425 60.6951 64.2425Z" fill="#FFD705"/>
<path d="M117.261 41.5313L103.797 39.5646C104.013 39.4427 104.208 39.3285 104.378 39.2226C105.886 38.3298 107.128 37.0504 107.975 35.5168L108.009 35.4548C108.035 35.4026 108.058 35.3532 108.08 35.3038L108.127 35.2026C108.145 35.1628 108.162 35.1229 108.178 35.0834L108.222 34.9694L108.257 34.8745L108.298 34.7482L108.318 34.6818C108.334 34.6225 108.346 34.5639 108.358 34.512C108.378 34.3961 108.387 34.2787 108.386 34.1611C108.383 34.0388 108.373 33.9168 108.355 33.7958C108.273 33.3019 108.122 32.822 107.908 32.3695C107.787 32.2517 107.637 32.1677 107.474 32.1257C107.224 32.0392 106.966 31.9786 106.704 31.945L106.683 31.9484L106.553 31.9279L106.513 31.9234L106.317 31.8963L106.29 31.9007C105.809 31.8346 105.1 31.7464 104.282 31.6756C102.997 31.5502 101.703 31.5214 100.413 31.5896L108.353 16.5106C108.717 16.4816 109.067 16.3607 109.37 16.1592C109.949 15.6935 109.739 15.1087 109.31 15.0125L109.155 14.9873L110.407 12.6072C110.407 12.6072 106.394 13.0476 105.471 13.9806C104.833 14.6281 97.9963 22.79 93.7475 27.8315L93.6968 27.5174C93.6146 27.4367 93.5093 27.3836 93.3956 27.3652C93.2818 27.3469 93.1652 27.3643 93.0617 27.4151C92.6311 27.5673 88.7982 29.3399 88.6636 29.8561C88.5957 30.1371 88.419 31.6881 88.268 33.0476C87.769 33.5463 87.1548 34.2487 86.6036 34.8822C83.9271 35.6275 80.9403 36.4883 77.7289 37.4549L74.7517 35.2016C75.117 34.9815 75.3554 34.8254 75.4462 34.7541C75.8839 34.4156 76.0813 34.2488 75.7404 34.2145C75.7404 34.2145 75.3134 34.2681 74.5633 34.3847L76.567 31.2779L74.4616 31.7286L72.7301 34.6869C72.0933 34.7896 71.3774 34.9291 70.5943 35.0837C68.3982 31.2995 65.592 26.5007 65.592 26.5007C65.592 26.5007 61.6278 27.0944 59.153 28.0097C56.6782 28.9251 56.1547 29.5824 56.1547 29.5824L54.2189 40.0512C50.1471 41.8144 46.8661 43.5786 45.8117 44.1451C44.1399 45.0421 43.0629 46.4268 43.4644 46.7018C43.7079 46.8608 44.3097 46.8922 45.2179 46.7697C45.1937 46.8092 45.1764 46.8525 45.1667 46.8977C43.6019 47.3244 42.0842 47.8131 41.6022 48.174C40.6301 48.8993 35.1974 52.8663 35.1974 52.8663C35.1974 52.8663 28.6006 56.9623 22.543 60.7012C21.1839 61.539 19.8547 62.3589 18.6297 63.1097L18.5981 63.1301L18.2275 63.3576L18.1839 63.3842L17.831 63.6001L17.7676 63.6387L17.4327 63.8452L17.3912 63.8714L16.4407 64.4604L16.3198 64.5343L16.1085 64.6555L15.9974 64.7235L15.7755 64.8595L15.6424 64.9398L15.4442 65.0611L15.3151 65.1385L15.1165 65.2577L14.9814 65.3383L14.8208 65.4361L14.6761 65.5248L14.5271 65.6141L14.3842 65.7004L14.2572 65.7775L14.0767 65.8872L13.9377 65.9706L13.7749 66.0687L13.6852 66.1202L13.5583 66.1973L13.4788 66.245L13.3614 66.314L13.2916 66.3536L13.1902 66.4135L13.1267 66.4521L13.043 66.5004L12.9891 66.5309L12.9154 66.5733L12.8757 66.5971L12.8115 66.6314L12.7839 66.6359L12.7218 66.6698L12.5883 66.7328L12.5372 66.7541L12.4214 66.8054L12.3579 66.8309L12.2148 66.8888L12.1617 66.9105L11.9569 66.9914L11.879 67.0214L11.721 67.0818L11.6162 67.1204L11.4664 67.1773L11.3555 67.2191L11.1642 67.2892L10.985 67.3529L10.8288 67.4108L10.6637 67.4679L10.561 67.5063L10.3673 67.5745L10.3249 67.5814L8.85394 68.104L8.68504 68.1639L8.61099 68.1911L8.47713 68.2388L8.37194 68.2754L8.2671 68.3141L8.14347 68.358L8.04678 68.3932L7.93165 68.4357L7.83709 68.4706L7.728 68.5099L7.63556 68.5444L7.53921 68.5818L7.45068 68.6135L7.36032 68.6476L7.28029 68.678L7.19635 68.7111L7.12902 68.7394L7.05319 68.7691L6.98981 68.7945L6.92461 68.8225L6.87393 68.8459L6.81688 68.8703L6.77649 68.8899L6.72794 68.913L6.69819 68.9178L6.66239 68.9388L6.64331 68.9419C6.63293 68.948 6.62384 68.9561 6.61665 68.9658C6.52016 69.0968 6.30868 69.3117 6.303 69.452C6.29821 69.5573 6.41915 69.6184 6.814 69.5547L6.9032 69.5403L6.93715 69.5349L7.01567 69.5222L7.06029 69.515L7.15197 69.4893L7.19655 69.4821L7.34452 69.4408L7.37847 69.4354L7.51375 69.3961L7.58211 69.3742L7.69643 69.3405L7.7772 69.3144L7.89513 69.2758L7.98222 69.2487L8.16244 69.1913L8.29278 69.1485L8.38769 69.1158L8.51378 69.0736L8.5984 69.0448L8.74323 68.9974L8.81118 68.9865L8.86 68.9786L8.87912 68.9755L9.04624 68.9181L9.09507 68.9102L9.38833 68.8106L9.40528 68.8079L9.6426 68.726L9.65747 68.7236C10.1133 68.5652 10.5747 68.4014 11.0072 68.2467L11.0199 68.2447L11.9914 67.8941L12.0552 67.8708L12.1498 67.8359L12.267 67.7931L12.3116 67.7859L12.4862 67.7207L12.6446 67.6625L12.6594 67.6601L13.1609 67.4746L15.6616 67.2325L15.8336 67.2047L16.0181 67.188L16.2947 67.1608L16.4051 67.143L17.0871 67.0766L17.2123 67.0564L17.3439 67.0352L17.7408 66.9973L17.9064 66.9706L18.0189 66.9524L18.4048 66.9141L18.4982 66.8991L18.8048 66.8692L18.9216 66.8504L19.2774 66.8148L19.4027 66.7946L19.6965 66.7668L19.8091 66.7486L20.2098 66.708L20.2523 66.7011L21.5213 66.5748L21.5999 66.5621L21.9833 66.5221L22.0024 66.519L22.8057 66.4352L22.8481 66.4283L23.6062 66.3475L23.9638 66.3094C25.1116 66.1874 25.9694 66.0904 26.2602 66.0435C27.5148 65.8412 40.9492 62.5852 43.036 62.1005C43.4558 62.0023 45.526 61.333 48.596 60.3129C47.9349 60.792 47.5527 61.1912 47.4763 61.4736C47.3159 62.0592 49.4616 62.4929 51.7731 61.9829C54.0846 61.4728 64.1115 59.2783 72.6572 55.4626L73.4531 55.1034C76.2098 55.5714 81.0708 56.4187 86.1597 57.2881C85.9626 57.5922 85.7605 57.9188 85.6005 58.2234C85.2909 58.8157 84.7257 59.8217 84.3749 60.4424C81.1043 61.9196 78.2894 63.2253 77.2674 63.8432C75.2562 65.0671 74.1491 66.6027 74.0616 67.1003C73.9742 67.598 75.7842 67.7874 77.6585 67.1866C79.5328 66.5859 87.6628 63.9873 94.4431 60.1645C95.1121 59.7887 95.765 59.4068 96.4005 59.0255L96.5414 59.0485C96.1524 59.4728 95.6378 60.0502 95.2961 60.4974C94.8896 61.0341 94.5106 61.5911 94.1604 62.1661C93.8693 62.4679 93.678 62.7536 93.6626 62.9826L89.511 65.0614C89.511 65.0614 89.1545 65.1603 89.5097 65.31C89.7902 65.4281 92.6822 63.9531 93.858 63.3431C94.1497 63.5444 94.7756 63.6307 96.3482 62.9284C97.5416 62.4005 100.624 60.9145 102.506 60.001C103.492 60.1468 104.153 60.2298 104.373 60.2292C106.148 60.2325 108.424 59.2468 110.168 58.347C111.911 57.4472 112.696 56.617 112.696 56.617L107.598 54.7189L109.42 53.4929L105.677 52.8005C106.304 52.3248 106.644 52.0455 106.644 52.0455C106.865 51.766 106.604 51.7929 106.029 51.8769C105.923 51.894 105.633 51.9603 105.19 52.0775L105.671 48.0358L103.558 49.0475L103.085 52.6915L102.513 52.8731L87.7543 47.3775C88.0288 47.2026 88.1764 47.1047 88.1764 47.1047C88.3236 46.9503 88.3179 46.875 88.1947 46.8404C89.6653 46.3157 90.6422 45.9577 90.9469 45.8214C91.5879 45.5416 92.6509 45.0565 93.9157 44.4713L96.9575 43.6954L96.9052 44.6535C96.9052 44.6535 112.757 45.1917 113.589 44.9748C114.421 44.7578 117.177 42.6536 117.348 42.43C117.518 42.2065 117.261 41.5313 117.261 41.5313ZM72.9303 36.2251L75.4908 38.123L73.4428 38.754L72.86 38.9351C72.5934 38.4706 72.1747 37.7387 71.6744 36.8785C72.1295 36.6483 72.5432 36.4312 72.9303 36.2251V36.2251ZM42.6791 53.5676C41.2926 54.1005 38.673 54.523 37.4682 54.5889C36.2635 54.6547 35.5662 53.0595 35.5662 53.0595L41.6982 48.6072C42.2924 48.8556 42.8332 49.2157 43.2916 49.668C43.9166 50.3426 44.7591 52.3521 44.7591 52.3521C44.1477 52.8835 43.4422 53.2957 42.6791 53.5676V53.5676ZM44.9254 49.2237C44.5204 48.5886 43.893 48.1275 43.166 47.9305L49.1586 46.1384C49.7615 46.4976 50.2242 47.0514 50.4705 47.7085C50.8805 48.8055 50.2752 50.1708 49.9479 50.559C49.6206 50.9472 46.2006 51.8365 46.2006 51.8365C45.8423 50.9345 45.416 50.0611 44.9254 49.2237V49.2237Z" fill="#333333"/>
</svg>
