<svg width="116" height="70" viewBox="0 0 116 70" fill="none" xmlns="http://www.w3.org/2000/svg">
<path d="M10.8969 46.0549C10.8969 46.0549 4.42003 40.4576 6.36392 34.9651C8.3078 29.4726 11.5449 26.5581 11.5449 26.5581C12.0261 28.5079 12.3506 30.493 12.5154 32.4945C12.7332 35.5276 12.5154 36.4623 12.5154 36.4623C12.5154 36.4623 12.7911 32.6021 13.0917 25.3284C13.3922 18.0547 17.28 14.484 17.28 14.484C17.28 14.484 15.3499 16.8167 16.2598 20.9609C16.9739 24.2255 17.5557 30.5507 17.5557 30.5507C17.5557 30.5507 15.9758 22.9957 20.9417 17.812C25.9075 12.6284 30.2696 10.905 30.1951 6.8022C30.1207 2.69936 30.9809 0 30.9809 0C30.9809 0 34.7612 10.9051 31.9543 14.575C29.1473 18.2449 27.8183 18.5041 28.9212 23.1446C30.0242 27.7851 27.4819 28.764 27.4819 28.764C27.4819 28.764 29.4727 30.2281 30.6611 27.5287C31.8495 24.8293 32.9745 24.9065 34.1628 22.7476C35.3512 20.5886 36.7051 20.4039 36.7051 20.4039C36.7051 20.4039 32.2686 27.2144 33.3467 29.9082C34.4248 32.6021 36.7051 31.9542 36.7051 35.3015C36.7051 38.6489 35.9082 40.3997 35.9082 40.3997C35.9082 40.3997 39.1894 38.7674 39.0818 36.7104C38.9743 34.6535 38.6489 32.2795 40.2675 31.9541L41.8888 31.6316C41.8888 31.6316 39.9587 31.3062 41.2408 35.5166C42.5229 39.727 43.4218 49.1182 35.9082 50.5217C28.3946 51.9252 26.2108 48.0402 26.0068 48.6881C25.8028 49.3361 23.7376 50.6182 19.5934 50.8305C11.1533 51.2854 10.8969 46.0549 10.8969 46.0549Z" fill="#FF9B05"/>
<path d="M22.5385 64.2425C22.5385 64.2425 14.7822 57.5423 17.1094 50.9662C19.4365 44.3901 23.3133 40.8994 23.3133 40.8994C23.8896 43.2341 24.2787 45.611 24.4768 48.0076C24.736 51.6251 24.4768 52.7585 24.4768 52.7585C24.4768 52.7585 24.8132 48.1427 25.1662 39.427C25.5191 30.7112 30.1734 26.4429 30.1734 26.4429C30.1734 26.4429 27.8655 29.2361 28.9519 34.1992C29.8067 38.1062 30.5153 45.6805 30.5153 45.6805C30.5153 45.6805 28.621 36.6338 34.5685 30.4272C40.516 24.2205 45.7383 22.1553 45.6473 17.2446C45.5563 12.3339 46.5903 9.09961 46.5903 9.09961C46.5903 9.09961 51.115 22.1553 47.7538 26.5504C44.3927 30.9455 42.8017 31.2544 44.0949 36.802C45.3881 42.3497 42.3854 43.5298 42.3854 43.5298C42.3854 43.5298 44.7704 45.2807 46.1905 42.0491C47.6105 38.8176 48.9643 38.9086 50.3843 36.325C51.8043 33.7414 53.4173 33.5181 53.4173 33.5181C53.4173 33.5181 48.1012 41.6742 49.3944 44.9002C50.6876 48.1262 53.4173 47.3486 53.4173 51.3577C53.4173 55.3668 52.4743 57.4816 52.4743 57.4816C52.4743 57.4816 56.4034 55.5295 56.2738 53.07C56.1442 50.6105 55.7555 47.7622 57.6966 47.3735L59.6267 46.9874C59.6267 46.9874 57.2995 46.5987 58.8519 51.639C60.4042 56.6793 61.463 67.9262 52.466 69.6082C43.469 71.2901 40.8551 66.6331 40.6097 67.4023C40.3643 68.1716 37.8938 69.6992 32.9307 69.9666C22.8445 70.5071 22.5385 64.2425 22.5385 64.2425Z" fill="#FFD705"/>
<path d="M114.086 33.1318L110.657 37.708L102.848 37.5113L103.099 37.3644C104.995 36.1794 106.891 34.7575 106.891 34.7575C106.891 34.7575 103.604 34.0797 102.388 34.0797C101.173 34.0797 95.2385 34.6224 95.2385 34.6224L103.678 18.0522C103.678 18.0522 101.782 18.2252 100.405 18.3745C100.413 18.3709 100.42 18.3641 100.424 18.3556C100.457 18.2537 100.391 17 100.391 17L99.4427 17.1019L99.2744 18.4906H99.4616C99.3071 18.5073 99.1536 18.5327 99.0019 18.5665C98.817 18.6376 92.9279 26.3184 89.2854 31.1008L88.7474 30.8638L88.9844 26.1525C88.5484 26.2564 88.1069 26.3355 87.662 26.3895C87.5601 26.3563 83.2587 32.2857 83.2587 32.2857L84.1238 34.9945C77.6066 35.7173 59.2755 38.1749 57.9792 38.5209L57.5313 38.6441L58.42 34.421C58.42 34.421 55.5382 34.184 53.64 34.7267C51.7417 35.2694 49.0993 36.4875 49.0993 36.4875L47.4806 41.0946L39.8496 42.4525C39.8496 42.4525 27.4813 45.3319 23.5828 46.4813C20.1417 47.5003 12.4988 51.7685 10.7593 52.752C10.708 52.749 10.6566 52.749 10.6053 52.752C9.87255 53.1064 9.16044 53.502 8.47244 53.937C7.21877 54.7166 -0.0330648 59.9019 0.000113486 60.274C0.0332918 60.6461 3.93172 60.748 7.55764 60.748C9.79975 60.7342 12.0365 60.5273 14.2431 60.1295L14.2668 60.1721L23.1681 58.2146C23.571 59.1625 24.3767 60.8452 25.173 61.376C25.4266 61.5443 25.647 61.6794 25.8389 61.786H25.8555C26.8034 62.4306 28.5335 62.5657 31.8205 62.9046C35.1075 63.2435 39.615 62.4993 42.2906 62.023C44.9662 61.5466 60.3183 56.8401 63.2664 55.9253C66.2146 55.0105 71.2293 52.2306 72.1109 51.8965C81.5335 52.2852 95.0631 52.9724 95.0631 52.9724C95.0631 52.9724 97.2908 52.3918 98.5753 51.8965C98.6677 51.8609 98.7554 51.8278 98.836 51.7922C98.9166 51.7567 98.9924 51.7235 99.0588 51.6927L99.4285 51.5149L99.5754 51.4462L99.9025 51.2922L100.08 51.2092L100.452 51.0339C100.644 50.9438 100.843 50.849 101.047 50.7566C101.696 50.4509 102.369 50.1404 102.891 49.8963L103.095 49.8015L103.829 49.4603H103.784L77.6777 48.1758C78.1304 47.8724 79.8698 47.0193 79.8698 47.0193L93.1412 41.6989C93.1412 41.6989 95.748 40.6727 98.3549 39.566C102.561 39.6963 107.394 39.8267 109.133 39.8551C109.607 40.3718 112.314 43.4099 112.401 43.4431C112.489 43.4763 113.935 42.8435 113.935 42.8435C113.935 42.8435 114.882 39.7627 114.882 37.8668C114.882 35.9709 115.212 32.9611 115.212 32.9611L114.086 33.1318ZM27.5215 60.8878C27.4712 61.0551 27.3855 61.2096 27.2702 61.3409C27.1549 61.4722 27.0126 61.5771 26.8532 61.6485C26.4001 61.5648 25.9769 61.3638 25.6256 61.0656C25.1516 60.6627 24.2037 58.8924 23.7723 58.0748L26.7963 57.4183C26.7963 57.4183 27.723 60.2337 27.5215 60.8878Z" fill="#333333"/>
</svg>
