<svg width="101" height="70" viewBox="0 0 101 70" fill="none" xmlns="http://www.w3.org/2000/svg">
<path d="M22.8969 46.0549C22.8969 46.0549 16.42 40.4576 18.3639 34.9651C20.3078 29.4726 23.5449 26.5581 23.5449 26.5581C24.0261 28.5079 24.3506 30.493 24.5154 32.4945C24.7332 35.5276 24.5154 36.4623 24.5154 36.4623C24.5154 36.4623 24.7911 32.6021 25.0917 25.3284C25.3922 18.0547 29.28 14.484 29.28 14.484C29.28 14.484 27.3499 16.8167 28.2598 20.9609C28.9739 24.2255 29.5557 30.5507 29.5557 30.5507C29.5557 30.5507 27.9758 22.9957 32.9417 17.812C37.9075 12.6284 42.2696 10.905 42.1951 6.8022C42.1207 2.69936 42.9809 0 42.9809 0C42.9809 0 46.7612 10.9051 43.9543 14.575C41.1473 18.2449 39.8183 18.5041 40.9212 23.1446C42.0242 27.7851 39.4819 28.764 39.4819 28.764C39.4819 28.764 41.4727 30.2281 42.6611 27.5287C43.8495 24.8293 44.9745 24.9065 46.1628 22.7476C47.3512 20.5886 48.7051 20.4039 48.7051 20.4039C48.7051 20.4039 44.2686 27.2144 45.3467 29.9082C46.4248 32.6021 48.7051 31.9542 48.7051 35.3015C48.7051 38.6489 47.9082 40.3997 47.9082 40.3997C47.9082 40.3997 51.1894 38.7674 51.0818 36.7104C50.9743 34.6535 50.6489 32.2795 52.2675 31.9541L53.8888 31.6316C53.8888 31.6316 51.9587 31.3062 53.2408 35.5166C54.5229 39.727 55.4218 49.1182 47.9082 50.5217C40.3946 51.9252 38.2108 48.0402 38.0068 48.6881C37.8028 49.3361 35.7376 50.6182 31.5934 50.8305C23.1533 51.2854 22.8969 46.0549 22.8969 46.0549Z" fill="#FF9B05"/>
<path d="M34.5385 64.2425C34.5385 64.2425 26.7822 57.5423 29.1094 50.9662C31.4365 44.3901 35.3133 40.8994 35.3133 40.8994C35.8896 43.2341 36.2787 45.611 36.4768 48.0076C36.736 51.6251 36.4768 52.7585 36.4768 52.7585C36.4768 52.7585 36.8132 48.1427 37.1662 39.427C37.5191 30.7112 42.1734 26.4429 42.1734 26.4429C42.1734 26.4429 39.8655 29.2361 40.9519 34.1992C41.8067 38.1062 42.5153 45.6805 42.5153 45.6805C42.5153 45.6805 40.621 36.6338 46.5685 30.4272C52.516 24.2205 57.7383 22.1553 57.6473 17.2446C57.5563 12.3339 58.5903 9.09961 58.5903 9.09961C58.5903 9.09961 63.115 22.1553 59.7538 26.5504C56.3927 30.9455 54.8017 31.2544 56.0949 36.802C57.3881 42.3497 54.3854 43.5298 54.3854 43.5298C54.3854 43.5298 56.7704 45.2807 58.1905 42.0491C59.6105 38.8176 60.9643 38.9086 62.3843 36.325C63.8043 33.7414 65.4173 33.5181 65.4173 33.5181C65.4173 33.5181 60.1012 41.6742 61.3944 44.9002C62.6876 48.1262 65.4173 47.3486 65.4173 51.3577C65.4173 55.3668 64.4743 57.4816 64.4743 57.4816C64.4743 57.4816 68.4034 55.5295 68.2738 53.07C68.1442 50.6105 67.7555 47.7622 69.6966 47.3735L71.6267 46.9874C71.6267 46.9874 69.2995 46.5987 70.8519 51.639C72.4042 56.6793 73.463 67.9262 64.466 69.6082C55.469 71.2901 52.8551 66.6331 52.6097 67.4023C52.3643 68.1716 49.8938 69.6992 44.9307 69.9666C34.8445 70.5071 34.5385 64.2425 34.5385 64.2425Z" fill="#FFD705"/>
<path d="M100.982 61.0168C100.935 60.8986 100.845 60.8025 100.731 60.748L93.8848 57.9977C93.8848 57.9977 93.9843 57.8633 93.6678 57.6948C93.4242 57.5553 93.1723 57.4313 92.9133 57.3237C92.8635 57.3237 92.4614 57.3898 92.4614 57.3898L88.1094 55.6185C88.0558 55.5047 87.9681 55.4106 87.8586 55.3497C87.6734 55.2474 86.8871 54.8763 86.8871 54.8763L86.5028 54.9946L76.9768 51.3837C76.9768 51.3837 77.0604 51.1832 76.9091 51.1129C76.4892 50.9162 76.0593 50.7421 75.6211 50.5913C75.5086 50.6096 75.4005 50.6491 75.3025 50.7077L67.8708 47.8411C67.8708 47.8411 67.8867 47.6405 67.7872 47.5542C67.6876 47.4679 66.7161 47.0306 66.4971 47.0487C66.3513 47.0718 66.2196 47.1499 66.1289 47.2673L58.7967 44.5511C58.7967 44.5511 58.295 42.7637 58.3985 42.5952C58.5468 42.3566 58.6798 42.1087 58.7967 41.853C58.8305 41.7346 58.8982 41.2793 58.8982 41.2793H58.8484C59.1212 41.1007 59.9593 40.5531 61.3011 39.7306C62.9615 38.7155 67.6717 34.0835 68.269 33.6041C68.5716 33.323 68.8562 33.0228 69.1211 32.7054C73.1783 33.2691 84.5837 34.8278 85.6448 34.7114C86.9289 34.565 87.4883 34.0555 87.6695 33.909C87.8506 33.7626 87.9044 33.6522 87.8865 33.562C87.8686 33.4717 72.8558 29.0664 72.8558 29.0664L72.7702 29.0945C73.6223 28.4345 74.6655 27.5438 74.8625 27.3893C75.1293 27.1887 74.8626 27.2389 74.773 26.7614C74.7516 26.6626 74.6993 26.5732 74.6237 26.5066V26.5066L75.2627 19.3852C75.4342 19.3389 75.6014 19.2779 75.7624 19.2026C76.065 19.0341 76.1606 18.0552 76.1606 17.9549C76.1476 17.842 76.1011 17.7357 76.0272 17.6499C75.8538 17.5502 75.6751 17.4605 75.4917 17.3811L75.4379 17.4012L75.637 15.1203L75.4698 15.002C75.4698 15.002 72.3561 15.7783 71.7708 16.3861C71.6175 16.5446 71.0661 17.4674 70.3334 18.7452L66.7819 19.7583C66.7819 19.7583 66.3479 19.8606 66.3837 19.995C66.3872 20.0236 66.3968 20.0511 66.4118 20.0757C66.4269 20.1002 66.447 20.1211 66.4708 20.1371C66.4946 20.1531 66.5216 20.1638 66.5498 20.1683C66.5781 20.1729 66.607 20.1712 66.6345 20.1635C66.7375 20.1439 66.8387 20.1157 66.9371 20.0792L70.0428 19.2628C68.8841 21.299 67.3871 24.0071 66.2822 26.0192L59.2586 22.6089L57.0945 23.7744C57.0945 23.7744 57.5982 24.8516 57.7177 25.0904C57.8093 25.2769 60.9129 28.4425 62.2766 29.8287L61.8088 29.9912C61.8088 29.9912 48.4504 34.3303 41.6359 36.563L25.0902 26.296L25.1997 26.2138L25.0006 25.967H24.483L21.22 23.9951L18.0666 24.954C18.0666 24.954 15.6458 26.3582 15.6458 26.5167C15.6458 26.6752 15.156 27.2007 15.1839 27.3652C15.2517 27.5312 15.3535 27.6809 15.4825 27.8046L15.8906 27.8307L15.7553 28.1336L15.8906 28.3522L16.1076 28.298L20.3839 37.9552C20.0697 38.3867 19.7837 38.8383 19.5279 39.3073C19.4629 39.4491 19.4077 39.5952 19.3626 39.7446C18.186 40.0977 17.0393 40.4528 16.4461 40.6634C14.935 41.203 13.7346 41.9834 13.6808 42.0676C13.6629 42.0977 13.633 42.1358 13.6012 42.182C13.5636 42.1615 13.5204 42.1538 13.4781 42.1599C13.4358 42.166 13.3966 42.1857 13.3663 42.2161C13.2548 42.3645 13.1672 43.0907 13.2369 43.1268C13.3065 43.1629 13.422 43.3495 13.5514 43.201C13.627 43.118 13.6853 43.0204 13.7227 42.9142C13.8347 42.9741 13.9583 43.009 14.085 43.0165C14.4831 43.0526 16.0598 42.7557 17.977 42.4588C18.1263 42.4347 18.2876 42.4006 18.4548 42.3605C17.2603 42.8941 16.3704 43.502 16.3246 43.5842L16.3127 43.6002L16.1494 43.6805C16.1238 43.6774 16.0978 43.6811 16.074 43.6913C16.0503 43.7015 16.0296 43.7179 16.0141 43.7387C16.0134 43.7433 16.0134 43.748 16.0141 43.7527C15.5033 43.9919 15.0222 44.2909 14.5807 44.6434C14.5627 44.6715 14.5329 44.7116 14.503 44.7597C14.4214 44.7316 14.3259 44.7196 14.2701 44.7978C14.1626 44.9483 14.085 45.6765 14.1606 45.7106C14.2363 45.7447 14.3498 45.9313 14.4752 45.7788C14.549 45.694 14.6052 45.5951 14.6404 45.488C14.7543 45.5457 14.8793 45.5779 15.0067 45.5822C15.4124 45.564 15.8159 45.5123 16.2132 45.4278L15.5164 45.851C14.8032 46.2551 14.1357 46.7361 13.5256 47.2854C12.7014 48.0076 11.051 51.0969 10.2367 52.7378C9.14975 51.9976 8.00699 51.2293 8.00699 51.2293C8.00699 51.2293 7.21068 51.0106 6.83442 51.0949C6.45816 51.1791 2.21574 53.6425 2.21574 53.6425L2.2396 53.6786C2.0762 53.7586 1.91737 53.8477 1.76382 53.9455C1.69193 53.9996 1.63163 54.0678 1.58661 54.1461C1.46963 54.1412 1.35451 54.1766 1.26014 54.2464C1.08682 54.4026 0.974544 54.616 0.943581 54.8482C0.943581 55.0327 0.959509 55.117 1.29397 55.117C1.62842 55.117 1.86336 55.0669 1.91313 54.9485C1.93427 54.8674 1.93903 54.7828 1.92708 54.6997C2.02952 54.6873 2.13121 54.6692 2.23168 54.6456C2.43053 54.5547 2.61183 54.4291 2.7672 54.2745V54.2745C3.28481 53.9194 5.69967 52.2925 6.40044 52.3366C7.02555 52.3767 8.74561 53.5964 9.42846 54.0979C9.24928 54.2624 9.00639 54.4851 8.71772 54.7439C8.29368 55.127 7.77208 55.5944 7.21465 56.0939L7.06334 56.2323L6.90611 56.3728L6.70703 56.5513L6.56365 56.6818L6.24714 56.9666L6.12368 57.0789L5.89277 57.2796L5.76732 57.3919L5.43487 57.6948L5.37713 57.7469L5.09843 58.0057C5.0626 58.0358 5.02875 58.0679 4.99491 58.1L4.72414 58.3508L4.66644 58.4029L4.36384 58.6878L4.28218 58.766C4.20255 58.8382 4.12692 58.9105 4.05326 58.9827L3.98356 59.0489L3.71881 59.3036L3.67104 59.3498C3.60335 59.418 3.53765 59.4822 3.47195 59.5504L3.41023 59.6106L3.21115 59.8232C2.89756 60.1536 2.60311 60.5019 2.32923 60.8664C2.23367 60.9927 2.14007 61.1211 2.04849 61.2535C0.94359 62.8343 0.0755953 64.8062 0.00790757 66.5776C-0.0256499 67.1802 0.1527 67.7755 0.51159 68.2587C0.549415 68.3088 0.589251 68.359 0.631058 68.4071C1.54882 69.4764 3.36245 69.9638 5.25771 69.9839C6.42035 69.9959 8.5127 69.356 10.5433 68.6097L10.7703 68.5255L11.3775 68.2968L11.6602 68.1885C12.0981 68.0179 12.5242 67.8474 12.9283 67.6829L13.3265 67.5204C13.7247 67.3519 14.1069 67.1935 14.4433 67.051L14.6603 66.9568C15.4766 66.6057 15.9942 66.3689 15.9942 66.3689H16.0081H16.02C16.1355 66.3328 16.5914 66.1944 17.2623 65.9677L17.2046 66.0861C17.1688 66.1603 17.1349 66.2285 17.107 66.2867C17.049 66.386 17.006 66.4936 16.9796 66.6057C17.0294 66.69 16.9975 66.8244 17.1468 66.8063H17.1807H17.2225C17.2981 66.8063 17.4017 66.7762 17.5072 66.7582L17.5808 66.7441L17.6426 66.7321L17.9014 66.6819C17.9014 66.6819 17.8416 66.8825 17.7998 67.0831V67.1092C17.7665 67.2306 17.759 67.3578 17.7779 67.4823C17.7879 67.5064 17.8018 67.5224 17.8237 67.5244C17.9909 67.5405 18.8948 67.2215 18.8948 67.2215C19.0706 67.4638 19.2656 67.6913 19.4781 67.9016C19.5797 68.013 19.7069 68.0977 19.8484 68.1483V68.1483L19.9479 68.1664L20.0395 68.1784C20.4606 68.234 20.8882 68.2123 21.3017 68.1143C21.7899 67.9413 22.265 67.7328 22.7231 67.4904C22.7231 67.4904 22.741 67.7271 23.0914 67.6769C23.4418 67.6267 23.7962 67.4222 23.7962 67.356C23.8635 67.2219 23.9478 67.0971 24.047 66.9848C24.047 66.9848 24.9847 66.6478 25.5859 66.383L26.3066 66.062C26.3066 66.062 32.7349 62.4692 34.0906 61.727C34.8463 61.3266 35.5537 60.8399 36.1989 60.2766C36.3209 60.3282 36.4519 60.3548 36.5842 60.3548C36.7165 60.3548 36.8474 60.3282 36.9694 60.2766C37.278 60.1141 42.2072 56.3688 43.4276 55.44L46.8637 55.452L49.5892 56.0177C49.3642 56.4831 49.0178 57.2093 48.8148 57.6426C47.899 58.1642 47.0409 58.6637 46.599 58.9425C45.3826 59.7149 44.8072 60.7139 45.1038 61.099C45.3686 61.4441 45.8703 61.5344 46.9294 61.1372C45.3368 62.0981 43.9552 62.9687 43.6864 63.2676C43.0653 63.9597 42.7408 64.4853 42.7308 65.073L42.5994 65.1352C42.537 65.1398 42.4777 65.1644 42.4302 65.2055C42.251 65.364 42.4501 65.8995 42.6193 66.0761C42.6838 66.1587 42.7702 66.2214 42.8684 66.2568C42.9666 66.2923 43.0728 66.2992 43.1748 66.2767V66.2767L43.3061 66.2085C43.616 66.3567 43.9608 66.4144 44.3015 66.375C44.5822 66.3549 45.3826 65.9136 46.4019 65.2757H46.5074C47.4729 65.1794 54.3731 59.9095 55.478 58.9465L55.9737 58.7801L55.7109 58.6998C55.9817 58.3247 55.9 58.0318 56.0852 57.9756C56.1927 57.9436 56.6824 57.759 57.1443 57.5884L59.4178 58.0619L58.8902 58.3668L58.6454 58.3869L57.3354 59.109L57.1921 59.5423C57.1921 59.5423 53.8953 61.7691 53.1587 62.389C52.4221 63.0088 51.6656 63.6267 51.4804 64.06C51.2953 64.4933 51.0305 65.1513 51.3371 65.2636C51.6437 65.3759 51.2555 65.6147 52.3325 65.2436C53.1022 64.9214 53.8457 64.5391 54.5562 64.1001C54.5804 64.1355 54.6107 64.1661 54.6458 64.1904C54.9723 64.4171 54.8708 64.6437 55.3625 64.4592C55.8543 64.2746 57.5922 63.3037 57.5922 63.3037C57.6447 63.3281 57.6986 63.3496 57.7535 63.3679C56.7223 64.1703 55.8582 64.8223 55.4441 65.1192C53.949 66.1904 53.3558 67.037 53.1926 67.4904C53.0293 67.9437 52.9059 68.2546 53.2124 68.4191C53.519 68.5836 53.519 68.7481 54.1959 68.4392C54.8728 68.1303 55.689 67.5726 56.5292 67.0571C57.5524 66.6458 64.2456 62.0038 64.2456 61.9215L64.0465 62.064L64.2456 61.9215C64.7154 61.5725 65.7387 60.7681 66.0253 60.3167C66.312 59.8653 65.9835 59.9676 65.9835 59.9676L66.5111 59.5484L72.1809 60.7279L84.2333 63.073C84.2333 63.073 84.301 63.5104 84.5519 63.4943C84.6263 63.4886 84.6988 63.4679 84.7651 63.4335C84.8315 63.399 84.8903 63.3515 84.9381 63.2937L89.9768 64.2726C89.9736 64.3222 89.9809 64.3719 89.9983 64.4184C90.0156 64.4649 90.0427 64.5072 90.0776 64.5423C90.1124 64.5774 90.1543 64.6046 90.2005 64.6221C90.2466 64.6396 90.2959 64.647 90.3451 64.6438C90.4411 64.655 90.5383 64.6426 90.6284 64.6077C90.7186 64.5727 90.799 64.5163 90.8627 64.4432C90.8627 64.4432 92.9133 65.0028 94.6672 65.3278C94.48 65.5665 94.3208 65.8454 94.4283 66.0119C94.5871 66.2391 94.8226 66.4004 95.0908 66.4653C95.3591 66.5303 95.6416 66.4946 95.8856 66.3649C96.2127 66.1796 96.4739 65.8954 96.6321 65.5525C96.7191 65.55 96.8057 65.5399 96.8909 65.5224C98.0456 65.2696 100.021 63.0088 100.423 62.3508C100.825 61.6928 101.066 61.2194 100.982 61.0168ZM21.015 42.9623C22.5041 42.3605 26.5713 41.207 26.5713 41.207L28.2456 41.5119C28.2456 41.5119 28.2636 41.5962 28.1123 41.6965C27.961 41.7968 18.7216 46.7397 18.3851 46.824C18.0487 46.9082 18.0188 46.7237 18.0188 46.7237C17.7944 46.6391 17.5848 46.5193 17.3977 46.3686C17.1469 46.1499 16.026 45.829 15.9583 45.8129C15.8907 45.7969 19.5279 43.5742 21.015 42.9683V42.9623ZM16.5616 47.0447C16.8499 47.3738 17.1854 47.6578 17.557 47.8872C17.8863 48.0717 18.2348 48.2191 18.5962 48.3265C18.5962 48.3265 17.4017 48.495 17.1389 48.6294C16.8761 48.7638 16.5536 48.9323 16.5536 48.9323C16.6637 48.6353 16.7255 48.3224 16.7367 48.0056C16.7254 47.6803 16.6664 47.3585 16.5616 47.0507V47.0447ZM12.2096 53.4981L10.9375 52.6957C10.9375 52.6957 12.0424 49.9976 12.7949 49.0527C13.5474 48.1079 14.5688 46.846 15.0207 46.8099C15.3393 46.8085 15.6521 46.896 15.9245 47.0627C16.0843 47.3381 16.1605 47.6548 16.1435 47.9734C16.0917 48.4449 15.9444 49.137 14.8196 50.4028C13.6948 51.6686 12.2096 53.4981 12.2096 53.4981ZM15.8409 55.791C15.5538 55.7212 15.2832 55.5951 15.0445 55.4199C14.6085 55.117 13.3523 54.0157 13.3523 54.0157C13.3523 54.0157 15.0107 51.2333 15.596 50.5251C16.1813 49.817 16.6173 49.2774 17.7719 49.1209C18.9266 48.9644 19.5139 49.1891 19.5139 49.1891C19.7531 49.426 19.9261 49.7221 20.0156 50.0477C20.149 50.5713 19.9658 51.7188 19.0202 53.2193C18.0746 54.7198 15.8409 55.787 15.8409 55.787V55.791ZM23.605 55.7249C22.5593 56.3681 21.389 56.7785 20.1729 56.9285C19.0203 57.0718 17.8504 56.9384 16.7586 56.5393L16.7745 56.4049C16.7745 56.4049 18.3672 55.444 19.1854 54.4831C20.0037 53.5222 21.011 51.0247 21.011 50.7378C21.011 50.4509 21.3276 50.6194 21.3276 50.6194C21.8343 51.1239 22.2837 51.6837 22.6674 52.2885C23.2367 53.2173 23.9395 55.3758 23.9395 55.3758C23.8639 55.52 23.7493 55.6396 23.609 55.7208L23.605 55.7249ZM32.0421 47.0546C31.9426 47.4559 31.5564 48.1339 30.6187 49.0447C29.681 49.9554 25.2435 54.5272 25.0444 54.5433C24.8453 54.5593 24.911 54.3908 24.7936 54.1902C24.6761 53.9896 23.2367 51.0347 22.2055 50.0397C21.1742 49.0447 19.1575 47.4418 19.1078 47.3235C19.058 47.2051 19.3248 47.0707 19.3248 47.0707L28.4825 42.1118C28.4825 42.1118 28.817 42.0957 29.0181 42.1118C29.6963 42.2758 30.2884 42.6912 30.6764 43.2753C31.2956 44.1519 32.1655 46.176 32.1655 46.3466C32.157 46.5856 32.1168 46.8224 32.0461 47.0507L32.0421 47.0546Z" fill="#333333"/>
</svg>
