<svg width="111" height="75" viewBox="0 0 111 75" fill="none" xmlns="http://www.w3.org/2000/svg">
<path d="M16.8969 46.0549C16.8969 46.0549 10.42 40.4576 12.3639 34.9651C14.3078 29.4726 17.5449 26.5581 17.5449 26.5581C18.0261 28.5079 18.3506 30.493 18.5154 32.4945C18.7332 35.5276 18.5154 36.4623 18.5154 36.4623C18.5154 36.4623 18.7911 32.6021 19.0917 25.3284C19.3922 18.0547 23.28 14.484 23.28 14.484C23.28 14.484 21.3499 16.8167 22.2598 20.9609C22.9739 24.2255 23.5557 30.5507 23.5557 30.5507C23.5557 30.5507 21.9758 22.9957 26.9417 17.812C31.9075 12.6284 36.2696 10.905 36.1951 6.8022C36.1207 2.69936 36.9809 0 36.9809 0C36.9809 0 40.7612 10.9051 37.9543 14.575C35.1473 18.2449 33.8183 18.5041 34.9212 23.1446C36.0242 27.7851 33.4819 28.764 33.4819 28.764C33.4819 28.764 35.4727 30.2281 36.6611 27.5287C37.8495 24.8293 38.9745 24.9065 40.1628 22.7476C41.3512 20.5886 42.7051 20.4039 42.7051 20.4039C42.7051 20.4039 38.2686 27.2144 39.3467 29.9082C40.4248 32.6021 42.7051 31.9542 42.7051 35.3015C42.7051 38.6489 41.9082 40.3997 41.9082 40.3997C41.9082 40.3997 45.1894 38.7674 45.0818 36.7104C44.9743 34.6535 44.6489 32.2795 46.2675 31.9541L47.8888 31.6316C47.8888 31.6316 45.9587 31.3062 47.2408 35.5166C48.5229 39.727 49.4218 49.1182 41.9082 50.5217C34.3946 51.9252 32.2108 48.0402 32.0068 48.6881C31.8028 49.3361 29.7376 50.6182 25.5934 50.8305C17.1533 51.2854 16.8969 46.0549 16.8969 46.0549Z" fill="#FF9B05"/>
<path d="M28.5384 64.2425C28.5384 64.2425 20.7821 57.5423 23.1093 50.9662C25.4364 44.3901 29.3132 40.8994 29.3132 40.8994C29.8895 43.2341 30.2786 45.611 30.4767 48.0076C30.7359 51.6251 30.4767 52.7585 30.4767 52.7585C30.4767 52.7585 30.8131 48.1427 31.166 39.427C31.519 30.7112 36.1733 26.4429 36.1733 26.4429C36.1733 26.4429 33.8654 29.2361 34.9518 34.1992C35.8066 38.1062 36.5152 45.6805 36.5152 45.6805C36.5152 45.6805 34.6209 36.6338 40.5684 30.4272C46.5158 24.2205 51.7381 22.1553 51.6471 17.2446C51.5562 12.3339 52.5901 9.09961 52.5901 9.09961C52.5901 9.09961 57.1148 22.1553 53.7537 26.5504C50.3926 30.9455 48.8016 31.2544 50.0948 36.802C51.388 42.3497 48.3853 43.5298 48.3853 43.5298C48.3853 43.5298 50.7703 45.2807 52.1903 42.0491C53.6103 38.8176 54.9642 38.9086 56.3842 36.325C57.8042 33.7414 59.4172 33.5181 59.4172 33.5181C59.4172 33.5181 54.1011 41.6742 55.3943 44.9002C56.6875 48.1262 59.4172 47.3486 59.4172 51.3577C59.4172 55.3668 58.4742 57.4816 58.4742 57.4816C58.4742 57.4816 62.4033 55.5295 62.2737 53.07C62.1441 50.6105 61.7553 47.7622 63.6965 47.3735L65.6266 46.9874C65.6266 46.9874 63.2994 46.5987 64.8518 51.639C66.4041 56.6793 67.4629 67.9262 58.4659 69.6082C49.4689 71.2901 46.855 66.6331 46.6096 67.4023C46.3642 68.1716 43.8937 69.6992 38.9306 69.9666C28.8444 70.5071 28.5384 64.2425 28.5384 64.2425Z" fill="#FFD705"/>
<path d="M111 46.2207L101.665 44.3783L101.87 43.9402L101.016 43.6556L101.067 43.3178L99.413 43.6556L83.4921 40.2307C90.213 39.8213 99.0834 39.2992 100.308 39.2992C102.314 39.2992 103.606 37.8294 103.606 37.8294L89.8199 34.8753L85.8934 35.3666C85.9203 34.7291 85.6944 34.1066 85.2649 33.6347C84.6712 33.0205 83.6272 32.8711 83.3324 32.8404L83.3447 32.8179L83.3078 32.8363H83.2485C83.2396 32.4266 83.1875 32.019 83.0929 31.6203C82.9639 31.2579 81.9035 30.9222 81.0457 30.8198C80.9411 30.8073 80.8357 30.8025 80.7304 30.8055L87.5946 10.4668C87.0745 10.5141 86.5581 10.5961 86.049 10.7124H86.0285L85.8996 10.7452L85.8586 10.7555L85.7481 10.7841L85.701 10.7984L85.5986 10.8271L85.5474 10.8435L85.4471 10.8762L85.4 10.8906L85.2915 10.9295L85.2567 10.9417L85.1155 10.997C85.0745 11.0154 85.0336 11.0318 84.9947 11.0523L84.9538 11.0707L84.8698 11.1137L84.8227 11.1383L84.7511 11.1792C84.7353 11.1876 84.7203 11.1971 84.706 11.2079L84.6405 11.2488L84.5996 11.2795L84.5382 11.3246L84.5034 11.3553C84.4833 11.3719 84.4642 11.3897 84.446 11.4085L84.4194 11.4351C84.3927 11.4611 84.3681 11.4892 84.3457 11.519C84.2864 11.5989 84.1124 11.8732 83.8503 12.3072L83.7091 12.5385L83.2075 13.3758L82.7981 14.0473C82.0222 15.3555 81.0129 17.0689 79.9054 18.9605L79.6004 19.4805L77.0639 23.8205L76.1018 25.4583L75.4712 26.5392L74.9676 27.4031C74.5582 28.095 74.1754 28.7665 73.8007 29.4073L73.4241 30.0542L64.6212 26.5924C64.6212 26.5924 64.1749 26.7439 63.6856 26.92C63.223 27.0878 62.7214 27.2741 62.5269 27.3724C62.1175 27.5771 61.9128 28.441 61.9128 28.441L62.6354 34.5436C60.4081 35.4587 62.6354 34.5436 62.6354 34.5436L47.9736 27.9251L48.3359 27.4338L47.4556 27.5362L47.0687 27.3314L46.1372 27.5116L41.5864 25.055C41.5864 25.055 38.2249 26.271 37.7581 26.4266C37.2914 26.5822 37.2423 27.1247 37.2423 27.1247L37.8564 30.4002L37.2095 30.9427L37.4941 31.3828L38.2699 31.4872L41.3407 42.4519L41.2895 43.2871C38.1 44.6731 32.2819 48.1287 32.2819 48.1287C32.2558 48.3351 32.2754 48.5448 32.3393 48.7429C32.4219 48.8782 32.5505 48.9792 32.7016 49.0274L33.5062 48.5914L32.3802 49.2342L32.3433 49.2158C32.3433 49.2158 30.1856 50.4932 28.8631 51.2629C28.8631 51.2629 28.812 51.2752 28.8325 51.2814L27.2807 52.176C25.5283 53.1873 24.0195 54.0696 23.7452 54.258C23.2816 54.6139 22.927 55.0926 22.7216 55.6398L21.0839 56.8927C20.6758 56.8169 20.254 56.8849 19.8904 57.0851C19.571 57.3082 19.0961 58.1455 19.3192 58.1803C16.8626 60.0535 14.2484 62.0884 12.9075 63.0936C12.367 63.503 11.6239 64.1172 10.8112 64.8378C8.60839 66.7662 5.8795 69.3559 5.17937 70.1604C4.57654 70.8644 4.16172 71.7095 3.97358 72.617L0 74.9611C0 74.9611 3.13423 73.4728 3.99814 72.9507C4.17625 73.0858 8.00857 72.746 11.0384 71.8371C11.7672 71.618 12.8809 71.1922 14.1665 70.662C18.2363 68.9895 24.0769 66.2769 25.3113 65.6689C26.9388 64.8664 43.7134 56.5119 43.7134 56.5119C43.7134 56.5119 44.1371 56.4894 44.5814 56.4218C45.0256 56.3543 47.0769 55.3082 47.0769 55.3082C48.2603 55.7148 49.5244 55.83 50.7618 55.6439C52.7189 55.347 64.7399 49.14 65.743 48.62L90.952 48.5832L91.4187 49.0213L93.3861 49.0417H93.8713L94.3094 48.6528L107.55 48.5238L108.961 47.5862H108.998H108.963L111 46.2207ZM17.9967 63.0342C17.0837 63.2758 16.4061 63.0526 16.0274 62.7906C15.6486 62.5285 15.9782 62.0434 15.9782 62.0434L20.2159 58.1374C20.2159 58.1374 20.5557 57.6522 20.9344 57.5355C21.3132 57.4188 21.9416 57.515 22.5435 57.9818C23.1454 58.4485 24.0564 60.2889 24.0564 60.2889C24.0564 60.2889 18.9077 62.7906 17.9967 63.0342V63.0342ZM24.4822 60.0085C24.4822 60.0085 23.823 58.467 23.1249 57.8364C22.6364 57.4345 22.0514 57.167 21.4278 57.0605C21.4278 57.0605 22.6316 56.342 22.9714 56.0718C23.3873 55.7277 23.7818 55.3585 24.1526 54.9663C24.4351 54.6551 24.6869 54.5098 25.3809 54.606C26.0749 54.7022 26.6235 55.343 27.0985 56.039C27.424 56.568 27.6625 57.1458 27.8048 57.7504L24.4822 60.0085Z" fill="#333333"/>
</svg>
