<svg width="96" height="73" viewBox="0 0 96 73" fill="none" xmlns="http://www.w3.org/2000/svg">
<path d="M4.89689 46.0549C4.89689 46.0549 -1.57997 40.4576 0.363918 34.9651C2.3078 29.4726 5.54485 26.5581 5.54485 26.5581C6.02609 28.5079 6.35064 30.493 6.51542 32.4945C6.73324 35.5276 6.51542 36.4623 6.51542 36.4623C6.51542 36.4623 6.79114 32.6021 7.09169 25.3284C7.39223 18.0547 11.28 14.484 11.28 14.484C11.28 14.484 9.3499 16.8167 10.2598 20.9609C10.9739 24.2255 11.5557 30.5507 11.5557 30.5507C11.5557 30.5507 9.97581 22.9957 14.9417 17.812C19.9075 12.6284 24.2696 10.905 24.1951 6.8022C24.1207 2.69936 24.9809 0 24.9809 0C24.9809 0 28.7612 10.9051 25.9543 14.575C23.1473 18.2449 21.8183 18.5041 22.9212 23.1446C24.0242 27.7851 21.4819 28.764 21.4819 28.764C21.4819 28.764 23.4727 30.2281 24.6611 27.5287C25.8495 24.8293 26.9745 24.9065 28.1628 22.7476C29.3512 20.5886 30.7051 20.4039 30.7051 20.4039C30.7051 20.4039 26.2686 27.2144 27.3467 29.9082C28.4248 32.6021 30.7051 31.9542 30.7051 35.3015C30.7051 38.6489 29.9082 40.3997 29.9082 40.3997C29.9082 40.3997 33.1894 38.7674 33.0818 36.7104C32.9743 34.6535 32.6489 32.2795 34.2675 31.9541L35.8888 31.6316C35.8888 31.6316 33.9587 31.3062 35.2408 35.5166C36.5229 39.727 37.4218 49.1182 29.9082 50.5217C22.3946 51.9252 20.2108 48.0402 20.0068 48.6881C19.8028 49.3361 17.7376 50.6182 13.5934 50.8305C5.15332 51.2854 4.89689 46.0549 4.89689 46.0549Z" fill="#FF9B05"/>
<path d="M16.5385 64.2425C16.5385 64.2425 8.78224 57.5423 11.1094 50.9662C13.4365 44.3901 17.3133 40.8994 17.3133 40.8994C17.8896 43.2341 18.2787 45.611 18.4768 48.0076C18.736 51.6251 18.4768 52.7585 18.4768 52.7585C18.4768 52.7585 18.8132 48.1427 19.1662 39.427C19.5191 30.7112 24.1734 26.4429 24.1734 26.4429C24.1734 26.4429 21.8655 29.2361 22.9519 34.1992C23.8067 38.1062 24.5153 45.6805 24.5153 45.6805C24.5153 45.6805 22.621 36.6338 28.5685 30.4272C34.516 24.2205 39.7383 22.1553 39.6473 17.2446C39.5563 12.3339 40.5903 9.09961 40.5903 9.09961C40.5903 9.09961 45.115 22.1553 41.7538 26.5504C38.3927 30.9455 36.8017 31.2544 38.0949 36.802C39.3881 42.3497 36.3854 43.5298 36.3854 43.5298C36.3854 43.5298 38.7704 45.2807 40.1905 42.0491C41.6105 38.8176 42.9643 38.9086 44.3843 36.325C45.8043 33.7414 47.4173 33.5181 47.4173 33.5181C47.4173 33.5181 42.1012 41.6742 43.3944 44.9002C44.6876 48.1262 47.4173 47.3486 47.4173 51.3577C47.4173 55.3668 46.4743 57.4816 46.4743 57.4816C46.4743 57.4816 50.4034 55.5295 50.2738 53.07C50.1442 50.6105 49.7555 47.7622 51.6966 47.3735L53.6267 46.9874C53.6267 46.9874 51.2995 46.5987 52.8519 51.639C54.4042 56.6793 55.463 67.9262 46.466 69.6082C37.469 71.2901 34.8551 66.6331 34.6097 67.4023C34.3643 68.1716 31.8938 69.6992 26.9307 69.9666C16.8445 70.5071 16.5385 64.2425 16.5385 64.2425Z" fill="#FFD705"/>
<path d="M80.4118 49.1617L57.6346 46.4249L57.6554 46.4105C57.6554 46.4105 59.7056 44.5179 59.9242 42.4977C59.9242 42.401 59.9388 42.3124 59.945 42.2239C59.9961 41.9468 59.9961 41.6628 59.945 41.3857C59.944 41.3692 59.944 41.3527 59.945 41.3363C59.8873 40.7953 59.6415 40.2909 59.2498 39.9092C59.127 39.7465 59.0021 39.592 58.8793 39.4417C58.6712 39.139 58.4922 38.9125 58.3798 38.7704C58.248 38.5641 58.153 38.3371 58.0988 38.099L58.5879 36.0274C59.222 34.7888 59.9303 33.5889 60.7089 32.4338L78.0161 38.5438L79.1026 37.7201L63.2837 27.7118L62.8445 28.1669C63.1047 27.2629 63.2941 26.4 63.2046 26.1509C63.1339 26.0144 63.0363 25.8932 62.9176 25.7946C62.799 25.6959 62.6616 25.6217 62.5135 25.5763C62.5135 25.5042 62.5447 25.012 62.6904 24.9214C62.8361 24.8308 63.523 24.3757 63.523 24.3757L63.4835 23.8877L62.6509 24.316L64.8364 10.9922C64.8364 10.9922 62.4906 11.8695 61.937 12.6705C61.4686 13.3501 54.194 25.1624 52.0439 28.655C51.2113 29.0112 50.4203 29.3716 49.6814 29.7217L44.0615 30.9758L43.2768 31.4412L43.256 31.7337L45.9952 31.6534C41.5555 34.1019 35.0322 37.924 33.9686 38.548L33.8396 38.5583H33.8271C33.378 38.6178 32.9424 38.7521 32.5387 38.9557C32.035 39.2008 31.0067 39.6641 30.374 39.9483L20.1749 36.7646L9.48463 29.9812L6.05025 31.5422L6.00863 31.4969L6.04192 31.5463L5.12402 31.9581L5.71306 33.0846L5.06573 33.4161L8.15042 42.3968L10.567 41.4248L11.3267 42.2486C11.1768 42.4648 10.9916 42.8025 11.1186 42.9899C11.2455 43.1773 11.616 42.9734 11.8429 42.8149L13.508 44.6497C13.4768 44.7198 13.2292 45.2675 13.3749 45.5558C13.5206 45.8441 14.1221 45.3499 14.1221 45.3499L15.1191 46.4269C14.9664 46.6892 14.9188 46.9986 14.9859 47.2939C15.1233 47.7058 15.9683 47.4113 15.9683 47.4113L16.2223 47.6419C15.7435 48.9496 15.5291 50.9616 15.4001 52.018C15.3403 52.4626 15.3729 52.9146 15.4958 53.3463C15.2871 53.6227 15.1098 53.921 14.9671 54.2359C14.8584 54.5541 14.7981 54.8865 14.7881 55.2223C13.4165 56.5485 11.0894 58.8282 9.15369 60.8587L9.05792 60.8854L9.09123 60.9246C7.80074 62.2816 6.69549 63.5214 6.17722 64.2812C5.43206 65.3789 5.06574 66.7524 4.88881 67.9633C4.87676 67.977 4.86563 67.9914 4.8555 68.0065L4.8784 68.0292C4.76447 68.8479 4.71716 69.6743 4.73687 70.5004H4.71812L1.99561 72.9963L4.96791 70.7722C5.9258 70.9166 6.89444 70.9794 7.86318 70.9596V70.9596L8.17956 70.9473L8.0526 72.4691L9.38889 72.7224C9.38889 72.7224 10.9583 71.8863 12.2842 71.0173C13.4935 70.4777 15.4938 69.5078 16.6802 68.5996C17.9603 67.6194 19.7482 65.7022 20.5891 64.7734L20.6287 64.7508L29.6392 59.691L29.5685 61.7998L32.3285 60.6692L34.5972 60.6115L34.618 59.9402C34.918 60.2035 35.2998 60.3576 35.7004 60.3768C36.227 60.3768 36.5121 60.2347 36.7224 59.8949L41.6929 56.5691H41.7553C41.7661 56.5482 41.7786 56.5282 41.7928 56.5094C42.0405 56.5094 45.0481 56.427 48.2223 56.3323C48.0136 56.492 47.8395 56.6916 47.7103 56.9192C47.6895 56.9665 47.6104 57.1828 47.5937 57.2445C47.4543 57.7841 47.8789 58.3586 48.5429 58.5275C48.7193 58.5764 48.9039 58.589 49.0854 58.5646C49.2669 58.5402 49.4414 58.4792 49.5982 58.3854C49.7543 58.2866 50.3995 57.6338 50.6181 57.4422C51.2925 56.8492 51.8669 56.2355 51.8669 56.2355V56.2169H51.9044C51.4611 56.6824 50.9282 57.2466 50.4474 57.8273L50.31 57.99C49.9916 58.3689 49.6981 58.7396 49.4775 59.0712C49.0073 59.7498 48.6647 60.5067 48.4659 61.3055C48.1724 61.5321 47.8997 61.7503 47.6583 61.946L47.5521 61.9686L47.5833 62.0077C47.2586 62.2755 46.9943 62.5041 46.8257 62.6688C45.785 63.6799 45.096 65.7022 45.5269 66.4394C45.9577 67.1766 48.0038 66.6927 49.8126 65.4674C49.9187 65.3953 50.0207 65.315 50.1456 65.2306L50.1643 65.2532V65.2121C52.0231 63.8261 54.9745 60.7825 55.2701 59.9072C55.4617 59.3894 55.4821 58.8248 55.3284 58.2948C55.0259 58.0231 54.644 57.8536 54.2377 57.8109L56.3379 56.0048L57.5222 55.9204C57.4848 56.0151 57.2516 56.6535 57.7449 56.7071C58.2778 56.7647 59.2248 55.8092 59.2248 55.8092L58.4776 55.8524L63.0152 55.5312C62.9569 55.6836 62.7383 56.3137 63.2066 56.2973C63.7374 56.2767 64.5825 55.4241 64.5866 55.42L70.2648 55.0081C70.2461 55.0802 70.1233 55.6136 70.3252 55.7412C70.5271 55.8689 70.8393 55.7206 71.1578 55.4673C71.3613 55.3006 71.5456 55.112 71.7073 54.9052L73.1497 54.8043C73.1497 54.8043 71.9466 56.1305 71.8884 56.2087C71.8884 56.2087 91.7057 50.7062 92.5529 50.3355C93.4 49.9648 95.9831 47.5657 95.9831 47.5657L80.4118 49.1617ZM22.1918 54.6066C21.1501 54.8436 20.0864 54.974 19.0176 54.9958C18.8255 54.9805 18.6344 54.9543 18.4452 54.9175C18.0955 54.8376 17.7624 54.6982 17.4607 54.5056C17.4607 54.5056 16.7905 53.999 16.7905 53.7643C16.7905 53.5295 18.7033 49.7857 20.023 48.1856C20.6069 48.0046 21.2183 47.9259 21.8297 47.9529C22.6747 48.0332 24.0173 48.791 24.5751 49.6003C25.1329 50.4097 25.3494 51.8306 25.3556 51.8656C24.317 53.0868 23.0723 54.38 22.1918 54.6066ZM29.5393 47.5802C28.4986 48.4842 27.4287 49.4335 26.9854 49.9422C26.7356 50.2223 26.361 50.6959 25.903 51.2375V51.2252C25.8773 50.9646 25.8349 50.706 25.7761 50.4508C25.6803 50.039 25.0746 48.6819 23.6218 47.7737C22.3563 46.9891 20.9451 47.3907 20.6037 47.5081C22.0629 45.8544 23.6375 44.304 25.3161 42.8684C25.5242 42.8519 27.0582 42.751 28.0865 43.5171C29.1876 44.3408 29.4748 46.0604 29.5227 46.5175C29.5508 46.8704 29.5563 47.2246 29.5393 47.5781V47.5802ZM31.8164 45.5929C31.6832 45.7165 31.4522 45.9203 31.1629 46.1716C31.1129 45.9924 30.578 44.1123 29.9847 43.3441C29.3603 42.5389 27.768 41.8758 27.2789 41.8593C26.8834 41.847 26.7398 41.8449 26.7002 41.8449C26.7668 41.8038 26.8314 41.7646 26.8959 41.7296C28.1012 41.0738 29.3584 40.516 30.655 40.0616H30.6737C30.8908 39.9794 31.1142 39.9147 31.3419 39.868C31.6437 39.9009 32.6802 40.0554 33.2651 40.6917C33.7086 41.2097 34.0496 41.8056 34.2704 42.4483C34.2704 42.4483 32.5054 44.9463 31.8164 45.5908V45.5929Z" fill="#333333"/>
</svg>
