<svg width="99" height="72" viewBox="0 0 99 72" fill="none" xmlns="http://www.w3.org/2000/svg">
<path d="M15.9145 46.0549C15.9145 46.0549 9.43761 40.4576 11.3815 34.9651C13.3254 29.4726 16.5624 26.5581 16.5624 26.5581C17.0437 28.5079 17.3682 30.493 17.533 32.4945C17.7508 35.5276 17.533 36.4623 17.533 36.4623C17.533 36.4623 17.8087 32.6021 18.1093 25.3284C18.4098 18.0547 22.2976 14.484 22.2976 14.484C22.2976 14.484 20.3675 16.8167 21.2774 20.9609C21.9915 24.2255 22.5733 30.5507 22.5733 30.5507C22.5733 30.5507 20.9934 22.9957 25.9593 17.812C30.9251 12.6284 35.2871 10.905 35.2127 6.8022C35.1382 2.69936 35.9985 0 35.9985 0C35.9985 0 39.7788 10.9051 36.9718 14.575C34.1649 18.2449 32.8359 18.5041 33.9388 23.1446C35.0417 27.7851 32.4995 28.764 32.4995 28.764C32.4995 28.764 34.4903 30.2281 35.6787 27.5287C36.8671 24.8293 37.992 24.9065 39.1804 22.7476C40.3688 20.5886 41.7226 20.4039 41.7226 20.4039C41.7226 20.4039 37.2862 27.2144 38.3643 29.9082C39.4424 32.6021 41.7226 31.9542 41.7226 35.3015C41.7226 38.6489 40.9258 40.3997 40.9258 40.3997C40.9258 40.3997 44.207 38.7674 44.0994 36.7104C43.9919 34.6535 43.6665 32.2795 45.285 31.9541L46.9063 31.6316C46.9063 31.6316 44.9762 31.3062 46.2584 35.5166C47.5405 39.727 48.4394 49.1182 40.9258 50.5217C33.4122 51.9252 31.2284 48.0402 31.0244 48.6881C30.8203 49.3361 28.7551 50.6182 24.6109 50.8305C16.1709 51.2854 15.9145 46.0549 15.9145 46.0549Z" fill="#FF9B05"/>
<path d="M27.5561 64.2425C27.5561 64.2425 19.7998 57.5423 22.127 50.9662C24.4541 44.3901 28.3309 40.8994 28.3309 40.8994C28.9072 43.2341 29.2963 45.611 29.4944 48.0076C29.7536 51.6251 29.4944 52.7585 29.4944 52.7585C29.4944 52.7585 29.8308 48.1427 30.1837 39.427C30.5367 30.7112 35.191 26.4429 35.191 26.4429C35.191 26.4429 32.8831 29.2361 33.9695 34.1992C34.8243 38.1062 35.5329 45.6805 35.5329 45.6805C35.5329 45.6805 33.6386 36.6338 39.5861 30.4272C45.5335 24.2205 50.7558 22.1553 50.6648 17.2446C50.5739 12.3339 51.6078 9.09961 51.6078 9.09961C51.6078 9.09961 56.1325 22.1553 52.7714 26.5504C49.4103 30.9455 47.8193 31.2544 49.1125 36.802C50.4057 42.3497 47.403 43.5298 47.403 43.5298C47.403 43.5298 49.788 45.2807 51.208 42.0491C52.628 38.8176 53.9819 38.9086 55.4019 36.325C56.8219 33.7414 58.4349 33.5181 58.4349 33.5181C58.4349 33.5181 53.1188 41.6742 54.412 44.9002C55.7052 48.1262 58.4349 47.3486 58.4349 51.3577C58.4349 55.3668 57.4919 57.4816 57.4919 57.4816C57.4919 57.4816 61.421 55.5295 61.2914 53.07C61.1618 50.6105 60.773 47.7622 62.7142 47.3735L64.6443 46.9874C64.6443 46.9874 62.3171 46.5987 63.8695 51.639C65.4218 56.6793 66.4806 67.9262 57.4836 69.6082C48.4866 71.2901 45.8727 66.6331 45.6273 67.4023C45.3819 68.1716 42.9114 69.6992 37.9483 69.9666C27.8621 70.5071 27.5561 64.2425 27.5561 64.2425Z" fill="#FFD705"/>
<path d="M94.0343 44.6487H93.9852L77.5441 42.3387L76.5266 43.0602L77.1159 42.3033L68.5477 41.055L79.2098 38.5445C79.2098 38.5445 79.4298 37.6107 79.4298 37.5615C79.4298 37.5124 64.8941 38.3479 60.8123 38.5936C61.1069 37.1153 61.2189 35.7843 60.9891 34.939C60.3487 32.5798 57.0939 32.226 57.0939 32.226C57.0939 32.226 57.0134 32.2103 56.8661 32.1926C56.8172 32.0098 56.7921 31.8215 56.7914 31.6323C56.7914 31.5222 56.8523 30.897 56.9564 29.9318C57.4553 25.2135 58.9207 12.382 58.9737 11.5523C58.9767 11.4973 58.9767 11.4422 58.9737 11.3872C59.0856 11.316 59.1857 11.2278 59.2704 11.1257C59.7496 10.479 59.6219 9.64542 59.1584 9.51567C58.8813 9.50493 58.6047 9.54693 58.3432 9.6395C58.5396 9.47632 58.8087 9.24631 58.8637 9.04972C58.9561 8.73517 59.1211 5.01367 59.1211 5.01367C58.7366 5.14641 58.3601 5.30134 57.9936 5.47765C57.6616 5.66245 57.5673 5.95931 57.2726 6.27386C57.1941 6.35643 56.6834 8.00386 55.9664 10.4396L55.9232 10.4553L55.165 13.0838H55.1846C53.5307 18.6769 51.2894 26.283 49.9714 30.152C49.7317 30.9006 49.453 31.6362 49.1366 32.3558C48.7752 33.0812 48.0071 33.954 47.0702 34.8485C46.5869 35.0962 46.2844 35.2614 46.2844 35.2614L46.2059 35.283C44.3909 34.6106 37.2271 31.9606 37.1702 31.9606C37.1132 31.9606 35.8993 32.8551 35.8993 32.8551L40.4839 37.2568L40.3994 37.2922L21.5325 35.0982L20.0927 35.5111L20.7193 35.0785L7.71769 33.3859L7.46232 33.3308L7.44069 33.3486L4.40588 32.9554L1.25123 34.1349L0 35.4462L12.5419 40.7286L13.7618 39.8892L13.6341 40.074L14.5298 40.3748L12.8012 43.1919L12.6048 45.7909L12.5891 45.9875H12.6421L12.5695 46.0681C12.1137 46.6441 11.7955 47.2594 12.1334 47.4776C12.4713 47.6958 12.8287 47.6369 13.7814 47.2201C14.7341 46.8033 16.8162 43.9036 16.8162 43.9036C16.8162 43.9036 16.8909 43.3944 16.4627 43.2725C17.1227 42.6828 17.7788 42.0831 18.2797 41.627L20.513 42.378L18.6627 46.0681L18.6037 48.8204C18.1382 49.4848 18.2934 49.9606 18.5625 50.1729C18.8316 50.3852 19.2971 50.4717 19.9532 50.1533C20.6093 49.8348 22.4734 47.8492 22.8996 47.0746C23.3259 46.3 23.2768 45.8833 23.2768 45.8833C23.2768 45.8833 23.375 45.5864 23.0175 45.6061C22.8844 45.6353 22.7532 45.6727 22.6246 45.7181L24.6538 43.766L26.2586 44.3046C26.015 45.1205 25.6693 46.2942 25.6379 46.6638C25.6084 46.9449 25.5004 47.7627 25.3963 48.5274C24.2589 49.42 23.0391 50.4541 22.3241 51.2797C20.7369 53.1061 20.5386 54.9737 20.7527 55.5497C20.9668 56.1257 22.0746 56.2162 22.9546 56.1886L22.9153 56.3361C22.9153 56.3361 22.6953 56.745 22.4144 57.3191C22.5991 56.9455 22.7563 56.6408 22.8447 56.4737C23.5086 56.34 24.7284 56.1827 25.6712 56.5641C26.5139 56.9286 27.2632 57.479 27.8634 58.1742C27.2976 58.6697 26.341 59.456 25.6535 59.7253C24.6164 60.1323 23.0646 60.1873 22.5637 59.5956C22.2475 59.2201 22.1159 58.5222 22.0628 58.0641C22.1434 57.8892 22.222 57.7221 22.2986 57.5609C21.9102 58.3326 21.5908 59.1372 21.3439 59.9652C21.0807 61.0209 21.281 61.6795 21.3753 61.9095C20.5465 62.8863 20.09 64.1253 20.0868 65.4068C20.0868 68.515 22.7445 71.0333 26.0229 71.0333C26.9693 71.0355 27.9035 70.8196 28.7532 70.4023C29.1677 70.2529 29.5841 70.072 30.0163 69.8676C30.4995 69.6395 31.3107 69.1696 32.2987 68.5602C32.4028 68.6447 32.833 68.9239 33.7523 68.5917C34.8248 68.1985 35.6203 66.4449 35.6203 66.4449L35.5437 66.4803C36.1762 66.0615 36.8205 65.631 37.457 65.2005C37.8498 65.1316 38.9989 64.9134 39.4861 64.2961C39.9732 63.6788 40.0753 63.437 40.091 63.3839C41.0496 62.7096 41.8963 62.0943 42.5307 61.6146C45.4889 59.344 52.4916 52.1388 52.4916 52.1388C52.4916 52.1388 52.8845 52.0405 54.3164 51.1559C55.4321 50.4639 56.4575 49.3177 57.4593 47.631C59.3705 47.6762 61.1639 47.7175 62.6214 47.745L61.213 51.8891L60.9596 54.4016C60.802 54.6892 60.6743 54.9922 60.5786 55.3059C60.4194 55.9409 61.0343 56.4167 61.4311 56.4167C61.8279 56.4167 62.7413 56.3184 63.5545 55.0268C64.3677 53.7352 64.9648 51.2915 64.9648 51.2915C64.9648 51.2915 64.953 51.034 64.786 50.9534L66.6678 47.7784H72.8435L73.6293 46.766L72.5587 48.8518H72.7296L71.6041 51.2365L70.8852 53.7922C70.3725 54.3151 69.903 54.8066 69.6005 55.1153C68.6871 56.0471 68.6871 57.5982 68.9248 57.8951C69.1625 58.1919 70.3941 58.015 71.4784 57.0615C72.5627 56.108 74.4543 52.8112 74.5132 52.3433C74.5491 52.0166 74.5491 51.687 74.5132 51.3603C74.5132 51.3603 75.7566 49.7679 76.5502 48.7574L95.9062 48.2522C95.9062 48.2522 97.0534 48.0556 97.3677 47.6624C97.682 47.2692 98.9764 45.4055 98.9764 45.4055L94.0343 44.6487ZM25.4355 70.2057C22.8014 70.2057 20.6643 68.1356 20.6643 65.5799C20.665 64.4857 21.0621 63.4289 21.7819 62.6054C22.1774 63.194 22.7164 63.6718 23.348 63.9936C23.9796 64.3153 24.6827 64.4704 25.3909 64.444C26.0991 64.4176 26.7889 64.2107 27.3948 63.8428C28.0007 63.475 28.5028 62.9584 28.8534 62.342C29.2841 62.764 29.6265 63.2677 29.8605 63.8236C30.0946 64.3796 30.2156 64.9766 30.2166 65.5799C30.2068 68.1297 28.0716 70.2037 25.4355 70.2037V70.2057ZM28.3584 57.7142L28.2503 57.8145C27.6027 57.0628 26.7917 56.4697 25.8795 56.0805C24.9346 55.6972 23.7953 55.7837 23.0469 55.9115C23.3907 54.6611 24.5143 50.7902 25.6398 49.2273C25.6889 49.1566 25.7419 49.0858 25.795 49.015C26.7162 48.9029 28.1934 48.8184 29.2914 49.2116C31.073 49.8544 31.6937 50.6329 32.1632 51.7673C32.4831 52.5808 32.7457 53.4157 32.9489 54.266C31.2184 55.5576 28.3584 57.7103 28.3584 57.7103V57.7142ZM35.6812 50.57C35.4593 51.6985 35.092 52.6618 34.0725 53.4206L33.383 53.9357C33.1807 53.1296 32.9241 52.3382 32.615 51.5668C32.1043 50.3459 31.3991 49.4494 29.4584 48.7476C28.4429 48.3819 27.1739 48.3879 26.2212 48.4704C27.1262 47.4066 28.1445 46.4447 29.258 45.6021C29.8499 45.4059 30.4589 45.2657 31.077 45.1834C33.0923 44.9239 34.1098 46.0897 34.1098 46.0897C34.8307 47.0333 35.9032 49.4376 35.6812 50.5681V50.57Z" fill="#333333"/>
</svg>
