<svg width="49" height="52" viewBox="0 0 49 52" fill="none" xmlns="http://www.w3.org/2000/svg">
<path d="M24.5826 0.123047H25.2652C29.5194 0.225557 33.5654 1.99469 36.541 5.05334C39.5166 8.11199 41.1863 12.2182 41.1943 16.4968C41.1983 23.8751 41.1983 31.2534 41.1943 38.6317C39.8995 38.6317 38.6044 38.6317 37.309 38.6317V16.8C37.3297 15.6689 37.2019 14.54 36.929 13.4424C36.1552 10.4116 34.2839 7.78034 31.6817 6.0641C29.9348 4.9237 27.9302 4.24437 25.8532 4.08889C23.7761 3.93341 21.6936 4.30679 19.7981 5.17452C17.9025 6.04225 16.255 7.37636 15.0078 9.05356C13.7607 10.7308 12.954 12.697 12.6625 14.7705C12.5127 15.7812 12.5459 16.798 12.5428 17.8128V38.6317C11.2481 38.6317 9.953 38.6317 8.65758 38.6317C8.65758 31.2871 8.65758 23.9425 8.65758 16.5979C8.6432 14.4011 9.07097 12.2242 9.91514 10.198C11.1347 7.27629 13.1678 4.7711 15.7699 2.98374C18.372 1.19638 21.4323 0.202983 24.5826 0.123047V0.123047Z" fill="#333333"/>
<path d="M17.6099 7.93039C19.5759 6.21529 22.0761 5.2447 24.6783 5.18638C27.2805 5.12806 29.8212 5.98568 31.8612 7.611C34.509 9.69107 36.1607 13.0032 36.1657 16.3892C36.1717 23.8012 36.1717 31.2158 36.1657 38.6332C28.6719 38.6339 21.1785 38.6342 13.6854 38.6342V17.7173C13.6854 16.8015 13.6563 15.8818 13.7859 14.9731C14.1637 12.2352 15.5236 9.7305 17.6099 7.93039ZM18.3498 28.4613C18.3498 28.8423 18.3498 29.2224 18.3498 29.6034C22.7333 29.6034 27.1168 29.6034 31.5003 29.6034C31.5003 29.2224 31.5003 28.8423 31.5003 28.4613C27.1168 28.4579 22.7333 28.4579 18.3498 28.4613ZM18.3498 33.7767C18.3498 34.1598 18.3498 34.5438 18.3498 34.9269C22.7313 34.9269 27.1135 34.9269 31.4963 34.9269C31.4963 34.5438 31.4963 34.1598 31.4963 33.7767H18.3498Z" fill="#333333"/>
<path d="M4.3171 39.7832C18.0588 39.7832 31.8008 39.7832 45.5431 39.7832C45.5431 41.4967 45.5431 43.2096 45.5431 44.9217C31.8008 44.9217 18.0584 44.9217 4.3161 44.9217C4.31007 43.2096 4.30705 41.4964 4.3171 39.7832Z" fill="#333333"/>
<path d="M0.968178 46.0742C16.9395 46.0742 32.9108 46.0742 48.8821 46.0742C48.8821 48.0061 48.8821 49.9382 48.8821 51.8707H0.967173C0.968178 49.9382 0.965162 48.0057 0.968178 46.0742Z" fill="#333333"/>
</svg>
