<svg width="61" height="79" viewBox="0 0 61 79" fill="none" xmlns="http://www.w3.org/2000/svg">
<path d="M45.0775 0.274123C45.0775 0.274123 43.2876 0.337602 42.4584 0.947084C42.101 1.19501 41.8152 1.5335 41.6301 1.92822C41.4449 2.32293 41.367 2.75983 41.4042 3.19456C41.4371 4.06053 41.5964 5.30996 41.5964 5.30996C41.5964 5.30996 41.116 5.24648 41.116 5.66296C41.116 6.07944 41.3082 7.44062 41.5003 7.45839C41.6501 7.47381 41.8014 7.4635 41.9478 7.42792C41.9478 7.42792 42.1399 8.51737 42.2992 8.99988C42.3912 9.2724 42.4655 9.55063 42.5216 9.83283L42.4256 10.4118C42.4256 10.4118 41.6924 10.6353 41.6292 11.1483C41.5872 11.521 41.5652 11.8957 41.5635 12.2708C41.5635 12.2708 38.3403 14.3887 37.6375 14.7722C37.0298 15.0409 36.5489 15.5349 36.2951 16.1511C35.9192 16.8762 35.6298 17.6434 35.433 18.4367C35.3066 19.0792 35.5923 22.5761 35.7516 23.7951C35.9108 25.014 36.1358 27.0659 36.0044 27.452C35.8729 27.838 36.0676 28.7014 35.9715 28.8309C35.8754 28.9604 34.0224 31.2993 33.6407 31.4923C33.2589 31.6853 32.8418 31.5253 32.8418 33.1913C32.8418 34.8572 33.4814 37.0005 33.8328 37.4272C34.1842 37.8538 33.1932 38.1331 33.8328 38.6766C34.4724 39.22 34.5659 38.9991 34.9173 39.6721C35.2687 40.345 36.9928 41.9576 36.9928 41.9576L37.6628 42.4655C36.9697 43.2183 36.5726 44.1985 36.5454 45.2235C36.515 46.9249 36.3861 49.7133 36.5454 50.0663C36.7046 50.4193 36.7375 51.3818 36.8968 50.5158C37.056 49.6498 37.056 49.8758 37.056 48.1413C37.056 46.4069 36.7046 45.3199 37.1521 44.614C37.461 44.1341 37.7987 43.6736 38.1633 43.235C38.1633 43.235 38.2922 51.7982 38.8029 53.7892C39.3136 55.7802 39.4728 56.9636 39.7939 57.8524C40.1149 58.7413 41.1337 62.3423 41.4523 63.3682C41.7708 64.3942 42.1879 64.8132 42.4104 65.4862C42.6329 66.1592 42.8579 66.0957 42.8579 66.5452C42.8579 66.9947 42.7618 69.7526 42.6986 70.2021C42.6354 70.6516 41.6874 73.666 42.0287 74.6284C42.37 75.5909 43.5607 76.5204 44.5188 76.1039C45.4769 75.6874 46.5412 74.8519 46.339 73.8183C46.1367 72.7847 45.5401 71.3804 46.0508 70.3544C46.5614 69.3285 46.5943 67.2435 46.4982 66.8575C46.4022 66.4715 46.0204 66.6036 46.0204 65.5878C46.0204 64.572 45.9244 64.1428 45.9876 62.7639C46.0508 61.3849 45.7954 60.5189 45.7954 59.9704C45.7954 59.4219 46.21 57.9819 46.6272 55.8665C47.0443 53.7511 46.9128 53.7156 46.6272 52.2731C46.3415 50.8307 47.9342 49.7717 46.88 49.0327C45.8258 48.2937 46.1443 47.7833 46.2732 46.7878C46.4022 45.7923 46.655 41.7519 46.7207 43.0674C46.7864 44.3829 47.5499 50.3812 47.5828 52.1436C47.6156 53.906 47.6131 55.3205 47.6763 56.6995C47.7395 58.0785 45.6008 58.6549 46.88 60.2548C48.1592 61.8547 49.0819 61.8268 48.6344 63.1422C48.187 64.4577 47.9013 64.3282 48.0934 65.1738C48.2856 66.0195 47.6763 65.8468 48.1238 66.9058C48.5712 67.9648 48.8594 67.8022 48.4752 68.7342C48.1562 69.49 47.9517 70.2895 47.8684 71.1061C47.8684 71.4921 48.5384 71.2661 48.6268 72.0686C48.7153 72.8711 48.5308 73.9605 48.374 74.796C48.2173 75.6315 47.0645 76.335 47.1934 76.9775C47.3224 77.62 48.599 78.2599 49.8757 78.2929C51.1523 78.326 52.3355 77.201 52.429 76.495C52.5225 75.789 52.1762 75.6925 52.0473 74.6995C51.9183 73.7066 51.888 72.0381 52.1433 71.1696C52.3987 70.3011 51.5669 70.3036 52.0144 68.7012C52.4619 67.0988 52.52 65.4938 53.4832 63.7924C54.4464 62.0909 54.8787 60.7729 54.6233 59.6479C54.368 58.5229 53.8649 58.6321 54.3048 57.3394C54.7447 56.0468 54.8104 51.5646 55.0076 50.1856C55.2048 48.8067 54.5905 48.4842 54.5905 46.9452C54.5905 45.4063 54.4641 43.0318 54.5905 42.7423C54.7169 42.4528 54.9419 42.4554 54.9722 43.1918C55.0025 43.9283 55.4197 44.2203 55.8671 47.2982C56.3146 50.3761 57.1766 52.3036 57.1134 53.1391C57.0502 53.9746 57.1438 54.7415 57.432 54.2616C57.7202 53.7816 57.7834 53.5886 57.9755 53.2991C58.1676 53.0096 58.5494 54.1651 58.0387 52.3061C57.528 50.4472 56.666 46.5948 56.666 44.8324C56.666 43.0699 56.3778 40.4035 56.3778 40.4035C56.3778 40.4035 58.7086 40.373 58.7086 38.415C58.7086 36.4571 58.4862 36.3834 59.6036 35.0807C60.7209 33.7779 60.9434 33.3487 60.9434 32.2262C60.9434 31.1038 61.1684 30.5883 60.7209 30.5883C60.2735 30.5883 60.1142 30.7508 59.3154 30.6213C58.5165 30.4918 57.9755 30.2048 57.8794 29.9153C57.7834 29.6258 56.6129 29.2829 56.891 28.7573C57.1691 28.2316 57.2095 27.5713 57.7227 26.6088C58.2359 25.6464 58.4811 25.1004 58.1044 24.3639C57.7278 23.6275 57.4016 24.3004 57.2095 22.9215C57.0174 21.5425 56.125 18.7186 55.5511 17.7891C54.9773 16.8597 54.3048 16.2807 54.1784 15.4477C54.052 14.6147 53.6728 14.0992 53.0913 13.8427C52.5099 13.5862 49.3878 12.1743 49.2993 12.1438C49.2108 12.1133 48.8518 11.3413 48.3412 10.8588C47.9761 10.5362 47.5676 10.2668 47.1277 10.0588L47.0064 9.47476C47.0064 9.47476 47.0696 9.05829 47.196 8.32183C47.2715 7.90854 47.3146 7.48993 47.3249 7.06986C47.3249 7.06986 47.8684 7.57776 47.9948 6.97335C48.1212 6.36895 48.3462 5.3379 48.058 5.01793C47.7698 4.69795 47.6131 4.66493 47.6131 4.66493C47.6131 4.66493 48.4094 2.88727 47.7395 1.64799C47.0696 0.408711 46.0356 -0.0788685 45.0775 0.274123Z" fill="#333333"/>
<path d="M32.7052 33.3448C32.4827 32.6693 30.7889 29.335 30.2783 28.6925C30.0115 28.3708 29.7666 28.0314 29.5452 27.6767L30.1822 27.2272L30.0862 26.6812L29.3834 26.9072L28.7463 26.0082L27.9879 26.1682L27.6997 25.9142C27.6997 25.9142 25.3688 23.0268 24.6028 22.6764C23.8369 22.3259 23.1973 21.9374 23.1973 21.9374L22.6917 21.1044C22.6917 21.1044 22.6588 21.1044 22.4995 20.6219C22.3403 20.1394 22.4667 19.8194 22.181 19.7229C21.7696 19.6273 21.3536 19.5527 20.9347 19.4994L20.8386 18.4405C20.8386 18.4405 23.1695 17.8005 23.6801 15.7791C24.1908 13.7576 23.3944 12.1222 22.7877 11.4619C22.3814 11.0352 21.8771 10.7152 21.3189 10.5299L20.5833 10.0499C20.5833 10.0499 20.0777 9.37695 18.5406 9.37695C17.0036 9.37695 15.2188 9.95342 14.9635 10.6264C14.8261 10.9692 14.7195 11.3236 14.6449 11.6854C14.6449 11.6854 12.6655 12.6148 12.6655 14.4128C12.6655 16.2108 13.6539 17.4602 14.2303 17.8437C14.8067 18.2272 16.0176 18.1967 16.0505 18.5497C16.0834 18.9027 16.0505 19.3522 16.0808 19.4487C16.1112 19.5452 15.1227 19.9946 15.1227 20.3781C15.1125 20.6898 15.0804 21.0004 15.0267 21.3076C15.0267 21.3076 12.3444 22.2066 11.7706 22.5265C11.1967 22.8465 4.52268 27.0189 3.97915 27.2094C3.43562 27.3999 2.4143 27.7884 2.2879 28.0779C2.16149 28.3674 0.915177 29.1343 0.849448 29.3908C0.783719 29.6473 0.116318 29.9368 0.659845 30.4066C1.20337 30.8764 1.80757 31.2066 1.90364 31.4224C1.9997 31.6383 5.64007 36.4583 5.94849 36.9078C6.25691 37.3573 6.7069 38.4467 7.00268 38.6702C7.11842 38.7723 7.24775 38.8578 7.38694 38.9241L3.45838 42.1646C3.45838 42.1646 3.84264 42.8071 3.9387 42.8071C4.08701 42.7521 4.22664 42.676 4.3533 42.581C4.3533 42.581 5.15216 45.052 5.2457 45.052C5.33923 45.052 5.56675 45.212 5.56675 44.9555C5.56675 44.699 5.02323 42.774 5.02323 42.774C5.02323 42.774 8.47147 39.9806 8.6004 39.9806C8.72933 39.9806 10.2285 40.2066 10.3877 40.2701C10.547 40.3336 12.079 41.8725 12.079 42.162C12.079 42.4515 10.5798 44.473 10.547 45.0495C10.5141 45.6259 10.4509 48.8333 10.547 51.1113C10.643 53.3892 10.8352 54.6412 10.8352 57.7825C10.8352 60.9239 9.44729 63.8494 9.19448 65.1954C8.94168 66.5413 10.2461 70.4242 10.4585 71.0667C10.6559 71.585 10.961 72.0551 11.3534 72.4457C11.4214 72.5361 11.4706 72.6394 11.4979 72.7494C11.5253 72.8593 11.5303 72.9737 11.5127 73.0856C11.5127 73.0856 9.74307 75.0436 9.69251 75.6835C9.64195 76.3235 10.7467 78.0275 11.6088 77.7152C12.4708 77.4028 15.1202 76.7857 15.1202 75.8562C15.1202 74.9268 14.7056 75.2772 15.057 74.1548C15.4084 73.0323 15.9191 72.0394 15.8559 71.3334C15.7927 70.6274 15.1834 70.9143 15.7269 70.0814C16.2704 69.2484 16.3008 68.8624 16.5561 66.5845C16.8114 64.3066 17.5142 61.4217 17.0996 59.6237C16.685 57.8257 16.9404 56.6728 17.451 55.8728C17.9617 55.0729 17.9566 54.9739 18.2802 53.8184C18.6038 52.6629 19.2384 50.578 19.3041 50.804C19.7114 51.9874 19.842 53.2491 19.6858 54.4914C19.433 56.4823 19.0791 58.0213 19.3673 59.6897C19.6555 61.3582 19.5266 65.688 20.0069 67.6435C20.4872 69.5989 20.4847 69.7614 20.9625 70.2109C21.4403 70.6604 21.5692 70.8509 21.5692 71.1404C21.5692 71.4299 21.4428 73.4259 21.3467 74.1243C21.2507 74.8227 22.4313 76.2727 23.1669 76.2727C23.9026 76.2727 25.5306 76.2092 26.0084 76.0467C26.4862 75.8842 26.423 75.3433 26.0716 74.7338C25.7202 74.1243 25.0604 74.1878 25.02 73.0958C24.9795 72.0038 24.2616 71.1708 24.795 70.4674C25.3284 69.764 26.2966 68.4129 26.327 67.387C26.3573 66.361 26.2638 65.3985 25.8214 64.8221C25.379 64.2456 25.7582 61.9981 26.2385 59.3037C26.7188 56.6093 25.8542 56.9293 26.3017 54.9408C26.7491 52.9524 26.8073 52.216 27.0348 51.0605C27.2623 49.905 26.1096 46.0551 25.9832 44.2597C25.8568 42.4642 26.1096 41.8547 25.7304 41.2453C25.4887 40.87 25.1989 40.5285 24.8683 40.2295C25.2119 39.9283 25.448 39.5225 25.5407 39.074C25.6368 38.401 25.7304 37.6315 25.7304 37.6315C25.7304 37.6315 27.6163 37.8855 28.989 37.2125C30.3617 36.5395 30.2985 36.3796 30.6802 36.3161C31.062 36.2526 32.053 35.5136 32.374 35.0006C32.6951 34.4876 32.915 34.0178 32.7052 33.3448ZM9.68239 36.2627C9.42959 36.4862 9.45993 37.1287 9.42959 37.3852C9.39925 37.6417 9.01499 37.3547 8.75966 37.2582C8.50433 37.1617 8.34506 36.4558 7.67261 35.6203C7.00015 34.7848 5.62996 32.1894 5.62996 32.1894C5.755 31.9194 5.86143 31.6411 5.94849 31.3564C5.98135 31.1634 6.33275 31.3564 6.87628 31.2599C7.41981 31.1634 9.15151 30.5209 9.15151 30.5209C9.15151 30.5209 10.365 32.0599 10.4307 32.1564C10.5317 32.6086 10.5742 33.0721 10.5571 33.5353C10.5571 34.1448 11.452 35.1073 11.5152 35.3333C11.5784 35.5593 9.92509 36.0393 9.66976 36.2627H9.68239ZM26.2562 34.6603C26.0034 34.8508 25.8719 34.5943 25.8087 34.4978C25.7455 34.4013 25.5837 32.0294 25.5837 31.7399C25.5837 31.4504 26.3826 31.3564 26.3826 31.3564C26.5077 31.6782 26.6041 32.0105 26.6708 32.3494C26.7147 32.6377 26.8237 32.9122 26.9893 33.1518C27.1421 33.3876 27.2604 33.6442 27.3407 33.9137C27.3281 34.0508 26.4989 34.4673 26.2435 34.6603H26.2562Z" fill="#333333"/>
</svg>
